<svg width="985" height="882" viewBox="0 0 985 882" fill="none" xmlns="http://www.w3.org/2000/svg">
<path d="M1068.66 321.694C1065.6 298.21 1060.65 275.197 1054.29 252.653C1046.98 227.291 1037.55 202.634 1025.77 178.916C1010.22 146.978 991.837 116.685 968.743 89.4444L929.153 46.0004C928.211 44.8262 927.032 43.6521 925.854 42.7127C885.322 5.84405 840.312 -23.7448 788.704 -43.7056C772.208 -50.0461 755.477 -56.1517 738.274 -60.1439C721.779 -64.136 705.283 -66.954 688.552 -69.5371C668.05 -72.8248 647.312 -75.6428 626.575 -76.5821C585.807 -78.4608 544.803 -79.1653 504.035 -74.2338C488.247 -72.3551 471.986 -70.9461 456.433 -67.8933C435.696 -63.9012 415.194 -58.9697 394.692 -53.8034C373.248 -48.4022 352.275 -41.8269 331.537 -34.5471C305.38 -25.3887 279.694 -14.1167 255.186 -1.20092C227.379 13.1239 200.514 29.5621 174.828 47.6442C115.679 89.4444 65.485 139.933 26.3666 200.99C14.3483 219.542 4.21523 239.033 0.444786 261.342C-2.1474 277.075 6.80742 291.87 21.6536 294.218C30.3727 295.627 39.3276 295.627 48.0467 293.749C73.0259 288.347 95.6486 277.545 116.622 263.22C133.353 251.948 149.849 240.442 166.58 229.17C180.012 220.011 194.859 212.262 208.998 204.277C234.448 189.953 259.899 175.393 286.763 164.121C313.156 153.084 339.785 142.751 367.121 133.593C390.215 126.078 413.544 119.973 437.11 115.276C465.388 109.64 494.138 106.352 523.123 105.648C580.622 104.474 636.237 111.988 688.08 138.524C709.053 149.327 727.906 162.712 743.93 180.09C761.604 199.111 774.329 221.185 778.1 246.547C782.577 274.727 779.514 303.142 767.26 329.913C754.534 357.623 737.567 381.811 712.588 399.893C701.041 408.347 687.845 414.922 677.24 424.785C668.757 432.534 668.521 438.17 676.769 446.155C686.666 455.548 698.449 462.123 709.76 469.403C730.026 482.319 740.16 502.515 748.643 523.649C752.178 532.573 753.356 542.671 754.77 552.534C757.598 571.086 756.184 589.403 752.178 607.719C747.936 626.741 739.924 644.353 729.319 660.792C728.848 661.496 728.377 662.201 728.141 662.905C726.727 665.253 719.893 674.882 718.951 676.291C718.008 677.465 708.582 686.858 706.697 688.737C699.863 695.312 693.029 701.183 689.023 704.47C644.249 741.104 591.698 756.838 534.67 760.126C512.754 761.3 491.074 760.126 469.159 758.012C450.542 756.133 432.397 752.846 414.487 748.384C390.215 742.513 366.414 734.999 344.027 724.196C326.589 715.742 309.386 707.054 302.552 686.623C298.546 674.412 295.247 661.731 293.362 649.05C288.413 617.113 285.821 585.176 284.878 553.004C283.464 495.939 282.993 438.875 284.171 381.811C284.407 366.547 287.234 351.987 292.89 338.132C302.552 315.118 331.537 297.036 356.516 299.385C377.018 301.263 395.871 307.134 412.366 319.815C442.53 343.298 457.14 373.826 452.899 412.574C451.956 421.732 451.249 430.891 450.306 440.049C447.243 466.116 444.651 491.947 442.059 518.013C439.702 542.906 436.874 567.798 439.702 592.925C441.116 606.545 446.3 618.757 459.968 623.453C482.826 631.438 506.628 634.256 530.428 628.15C557.764 621.34 577.088 598.326 577.088 570.381C577.088 545.724 566.483 525.763 545.982 511.203C537.734 505.333 528.543 501.106 520.767 494.53C507.334 483.493 497.437 470.812 500.029 452.026C501.207 443.102 504.978 435.352 509.22 427.603C522.652 403.18 542.447 383.924 562.477 365.138C575.438 352.691 588.399 340.715 597.118 324.746C614.792 292.809 608.901 262.751 578.03 242.555C560.592 231.048 540.797 226.117 520.295 222.594C489.189 217.428 458.083 219.542 427.212 224.003C401.291 227.761 375.84 233.866 350.861 242.32C331.302 248.896 312.685 256.88 294.775 266.508C269.325 280.128 245.524 296.332 223.608 314.883C208.055 328.269 193.445 342.594 180.248 358.327C165.166 376.644 151.263 395.901 139.48 416.566C126.519 439.11 116.386 462.828 108.845 487.485C101.304 512.143 96.8269 537.739 94.9417 563.571C92.5851 597.152 94.706 630.263 100.833 663.14C104.368 682.631 110.259 701.652 116.15 720.674C126.048 753.316 140.658 783.609 159.746 811.319C179.305 839.969 204.756 863.217 233.506 882.708C274.274 910.418 319.048 929.205 366.885 941.651C396.813 949.401 427.212 954.802 458.083 957.15C511.576 961.142 565.069 958.794 617.856 948.931C649.669 943.06 681.011 934.606 711.41 923.569C744.637 911.593 776.45 896.563 806.849 878.716C851.152 852.884 890.506 821.182 925.383 783.609C972.749 732.415 1005.27 672.768 1030.72 608.424C1045.57 571.086 1056.88 532.808 1064.18 493.121C1069.13 466.35 1071.96 439.579 1073.61 412.574C1075.02 382.515 1072.43 351.987 1068.66 321.694Z" fill="#D99D28" fill-opacity="0.26"/>
</svg>
