<svg width="68" height="110" viewBox="0 0 68 110" fill="none" xmlns="http://www.w3.org/2000/svg">
<path d="M-1.09458e-05 54.9672C-1.09458e-05 41.2229 -1.09458e-05 27.4798 -1.09458e-05 13.7377C-1.09458e-05 7.48852 3.3177 2.62294 8.92247 0.750811C10.3156 0.291463 11.7716 0.0525289 13.2381 0.0426146C27.0761 -0.0054728 40.9152 -0.0120302 54.7553 0.0229425C62.3789 0.0426146 67.9575 5.79015 67.9836 13.6098C68.0163 23.059 67.9836 32.5049 67.9836 41.9541C67.9836 60.0328 67.9836 78.1126 67.9836 96.1934C67.9836 102.013 65.4937 106.387 60.1311 108.807C58.4911 109.531 56.7209 109.913 54.9287 109.928C40.9686 110.017 27.0085 110.028 13.0483 109.961C5.56223 109.931 0.0228924 104.089 -1.09458e-05 96.318C-0.0130986 82.5344 -0.0130986 68.7508 -1.09458e-05 54.9672ZM15.5972 5.24589C14.7988 5.24589 14.1117 5.24589 13.4246 5.24589C8.56911 5.31802 5.28412 8.5836 5.28084 13.4426C5.26339 41.1694 5.26339 68.8984 5.28084 96.6295C5.28084 101.361 8.55275 104.731 13.2545 104.748C27.0903 104.796 40.9282 104.796 54.7684 104.748C55.9383 104.773 57.0986 104.532 58.1619 104.042C59.2252 103.552 60.1637 102.827 60.9065 101.921C62.3265 100.239 62.7388 98.2656 62.7388 96.1016C62.717 68.7027 62.7115 41.3005 62.7224 13.8951C62.7224 13.5279 62.7224 13.1574 62.7224 12.7902C62.4934 7.63934 57.4186 4.01311 52.3047 5.45573C52.3047 6.24261 52.3341 7.05573 52.3047 7.86884C52.1312 12.2852 48.8953 15.6656 44.6419 15.6984C37.5375 15.7596 30.4342 15.7596 23.3319 15.6984C21.4961 15.6745 19.7298 14.9913 18.3542 13.7729C16.9786 12.5544 16.085 10.8818 15.836 9.05901C15.6691 7.86884 15.679 6.61966 15.5972 5.24589ZM47.0074 5.41639H20.9402V6.81639C20.9402 9.76721 21.6993 10.5213 24.6276 10.5213H34.6822C37.8232 10.5213 40.9642 10.541 44.1053 10.5213C45.7641 10.5049 46.8537 9.67212 46.9911 8.28524C47.0762 7.34098 47.0009 6.40327 47.0009 5.39999L47.0074 5.41639Z" fill="#FDB912"/>
</svg>
