<svg width="1366" height="768" viewBox="0 0 1366 768" fill="none" xmlns="http://www.w3.org/2000/svg">
<path d="M1366 -3.05176e-05H0V768H1366V-3.05176e-05Z" fill="url(#paint0_linear_72_788)"/>
<path d="M317.55 244.08C288.17 214.22 244.13 208.99 201.45 241.66C164.67 269.82 144.23 302.57 85.36 303C-139.54 304.7 -124.37 450.32 -70.52 536.14C6.77 659.35 -21 701.53 -23.3 785C-24.89 843.33 -20.73 890.79 22.1 938.47C86.24 1009.88 180.83 1003.01 243.54 951.52C274.32 926.25 304.09 893.9 323.54 875.52C375.72 826 401.92 816.56 484.41 775.4C643.7 692.56 637 545.21 503.75 491.88C389.67 446.23 381.38 444.3 361.3 353.68C352.87 315.62 351.17 278.24 317.55 244.08Z" fill="url(#paint1_linear_72_788)"/>
<path d="M1161.51 421.8C1237 573 1414.74 480.21 1401 303.75C1395.28 230.49 1375 176.54 1424.42 113.35C1436.68 97.69 1447.33 80.8 1458.74 64.48C1479.83 34.3 1480.01 -20.77 1447.4 -60.69C1400.17 -118.48 1340.74 -166.13 1279.08 -208.81C1198.44 -264.63 1103.6 -281 1049.92 -196.1C1018.61 -146.58 1013.67 -96.42 955.45 -80.6C921.45 -71.35 898.02 -64.3 874.36 -34.54C832 18.73 835.13 -1.00003 798.65 19.31C711 68 739 186.75 827.69 236.64C886.79 269.87 949.48 256.48 984.93 255.35C1113 251.26 1100.26 299.13 1161.51 421.8Z" fill="url(#paint2_linear_72_788)"/>
<g style="mix-blend-mode:overlay">
<path d="M421.24 -323.22C407.09 -249.69 452.24 -178.67 514.58 -141.82C585.13 -100.14 645.93 -83.25 660.58 -1.82004C665.34 24.52 673.17 61.6999 685.47 85.7599C730.69 174.2 835.68 147.91 914.47 146.05C988.47 144.31 1036.68 185.63 1111.24 245.16C1111.71 245.54 1267.61 440.74 1339.24 247.16C1352.51 211.29 1355.69 181.86 1361.37 162.16C1383.72 84.78 1455.49 87.41 1564.19 41.86C1701.76 -15.79 1746.19 -173.53 1598.61 -226.31C1541.9 -246.6 1492.84 -249.48 1438.45 -275.72C1327.31 -329.35 1338.64 -439.46 1242.18 -486.94C1207.64 -508.08 1155.71 -512.94 1120.39 -507.35C984.42 -485.87 931.53 -433 833.16 -462C799.74 -471.86 758.09 -490.67 708.32 -498.27C580.1 -517.83 443.5 -438.87 421.24 -323.22Z" fill="#636363"/>
</g>
<g style="mix-blend-mode:overlay">
<path d="M-181.09 653.41C-195.24 726.94 -150.09 797.96 -87.75 834.81C-17.2 876.49 43.6 893.38 58.3 974.81C63.06 1001.15 70.89 1038.33 83.19 1062.39C128.41 1150.83 233.4 1124.54 312.19 1122.68C386.19 1120.94 434.4 1162.26 508.96 1221.79C509.43 1222.17 665.32 1417.37 736.96 1223.79C750.22 1187.92 753.41 1158.49 759.09 1138.79C781.43 1061.41 853.21 1064.04 961.91 1018.49C1099.48 960.84 1143.91 803.1 996.33 750.32C939.63 730.09 890.57 727.21 836.18 701C725 647.34 736.37 537.23 639.91 489.75C605.37 468.61 553.44 463.75 518.11 469.34C382.11 490.76 329.2 543.67 230.83 514.67C197.41 504.81 155.76 486 106 478.4C-22.23 458.8 -158.83 537.76 -181.09 653.41Z" fill="#636363"/>
</g>
<g style="mix-blend-mode:overlay">
<path d="M21 980.8C-50.65 980.8 -118 953.39 -168.58 903.61C-219.16 853.83 -247 787.58 -247 717.08C-247 646.58 -219.13 580.34 -168.54 530.56C-117.95 480.78 -50.64 453.36 21 453.36C92.64 453.36 160 480.78 210.58 530.56C261.16 580.34 289.04 646.56 289.04 717.08C289.04 787.6 261.17 853.82 210.58 903.61C159.99 953.4 92.66 980.8 21 980.8ZM21 454.69C-126 454.69 -245.68 572.4 -245.68 717.08C-245.68 861.76 -126 979.47 21 979.47C168 979.47 287.69 861.76 287.69 717.08C287.69 572.4 168.06 454.69 21 454.69V454.69Z" fill="#4A4A4A"/>
<path d="M21 947.92C-108.37 947.92 -213.62 844.37 -213.62 717.08C-213.62 589.79 -108.36 486.24 21 486.24C150.36 486.24 255.63 589.8 255.63 717.08C255.63 844.36 150.38 947.92 21 947.92ZM21 487.57C-107.62 487.57 -212.26 590.57 -212.26 717.08C-212.26 843.59 -107.61 946.59 21 946.59C149.61 946.59 254.26 843.59 254.26 717.08C254.26 590.57 149.63 487.57 21 487.57V487.57Z" fill="#4A4A4A"/>
<path d="M21 915C-89.94 915 -180.2 826.2 -180.2 717C-180.2 607.8 -89.94 519 21 519C131.94 519 222.2 607.81 222.2 717C222.2 826.19 132 915 21 915ZM21 520.42C-89.19 520.42 -178.84 608.62 -178.84 717.04C-178.84 825.46 -89.18 913.71 21 913.71C131.18 913.71 220.85 825.5 220.85 717.08C220.85 608.66 131.2 520.46 21 520.46V520.42Z" fill="#4A4A4A"/>
<path d="M21 882.16C-71.51 882.16 -146.78 808.1 -146.78 717.08C-146.78 626.06 -71.5 552 21 552C113.5 552 188.78 626 188.78 717.07C188.78 808.14 113.52 882.16 21 882.16ZM21 553.34C-70.77 553.34 -145.42 626.79 -145.42 717.08C-145.42 807.37 -70.76 880.82 21 880.82C112.76 880.82 187.42 807.37 187.42 717.08C187.42 626.79 112.78 553.34 21 553.34V553.34Z" fill="#4A4A4A"/>
<path d="M21 849.28C-53.09 849.28 -113.36 789.97 -113.36 717.08C-113.36 644.19 -53.08 584.89 21 584.89C95.08 584.89 155.36 644.19 155.36 717.08C155.36 789.97 95.1 849.28 21 849.28ZM21 586.22C-52.34 586.22 -112 644.92 -112 717.08C-112 789.24 -52.33 847.94 21 847.94C94.33 847.94 154 789.24 154 717.08C154 644.92 94.35 586.22 21 586.22Z" fill="#4A4A4A"/>
</g>
<g style="mix-blend-mode:overlay">
<path d="M1415.17 215.07C1343.52 215.07 1276.17 187.65 1225.59 137.87C1175.01 88.09 1147.13 21.87 1147.13 -48.65C1147.13 -119.17 1175 -185.39 1225.59 -235.17C1276.18 -284.95 1343.52 -312.37 1415.17 -312.37C1486.82 -312.37 1554.17 -284.96 1604.75 -235.17C1655.33 -185.38 1683.21 -119.17 1683.21 -48.65C1683.21 21.87 1655.34 88.09 1604.75 137.87C1554.16 187.65 1486.82 215.07 1415.17 215.07ZM1415.17 -311.04C1268.12 -311.04 1148.49 -193.33 1148.49 -48.65C1148.49 96.03 1268.12 213.74 1415.17 213.74C1562.22 213.74 1681.85 96 1681.85 -48.65C1681.85 -193.3 1562.22 -311 1415.17 -311V-311.04Z" fill="#4A4A4A"/>
<path d="M1415.17 182.19C1285.8 182.19 1180.55 78.63 1180.55 -48.65C1180.55 -175.93 1285.8 -279.49 1415.17 -279.49C1544.54 -279.49 1649.79 -175.94 1649.79 -48.65C1649.79 78.64 1544.54 182.19 1415.17 182.19ZM1415.17 -278.16C1286.55 -278.16 1181.91 -175.16 1181.91 -48.65C1181.91 77.86 1286.55 180.86 1415.17 180.86C1543.79 180.86 1648.43 77.86 1648.43 -48.65C1648.43 -175.16 1543.79 -278.16 1415.17 -278.16Z" fill="#4A4A4A"/>
<path d="M1415.17 149.31C1304.23 149.31 1213.97 60.5 1213.97 -48.69C1213.97 -157.88 1304.23 -246.69 1415.17 -246.69C1526.11 -246.69 1616.37 -157.89 1616.37 -48.69C1616.37 60.51 1526.11 149.31 1415.17 149.31ZM1415.17 -245.28C1304.98 -245.28 1215.33 -157.07 1215.33 -48.65C1215.33 59.77 1305 148 1415.17 148C1525.34 148 1615 59.77 1615 -48.65C1615 -157.07 1525.36 -245.28 1415.17 -245.28V-245.28Z" fill="#4A4A4A"/>
<path d="M1415.17 116.43C1322.66 116.43 1247.39 42.37 1247.39 -48.65C1247.39 -139.67 1322.66 -213.73 1415.17 -213.73C1507.68 -213.73 1583 -139.67 1583 -48.65C1583 42.37 1507.68 116.43 1415.17 116.43ZM1415.17 -212.39C1323.4 -212.39 1248.75 -138.94 1248.75 -48.65C1248.75 41.64 1323.4 115.09 1415.17 115.09C1506.94 115.09 1581.59 41.64 1581.59 -48.65C1581.59 -138.94 1506.94 -212.39 1415.17 -212.39Z" fill="#4A4A4A"/>
<path d="M1415.17 83.54C1341.08 83.54 1280.81 24.24 1280.81 -48.65C1280.81 -121.54 1341.08 -180.85 1415.17 -180.85C1489.26 -180.85 1549.53 -121.54 1549.53 -48.65C1549.53 24.24 1489.26 83.54 1415.17 83.54ZM1415.17 -179.46C1341.83 -179.46 1282.17 -120.76 1282.17 -48.6C1282.17 23.56 1341.83 82.26 1415.17 82.26C1488.51 82.26 1548.17 23.56 1548.17 -48.6C1548.17 -120.76 1488.51 -179.51 1415.17 -179.51V-179.46Z" fill="#4A4A4A"/>
</g>
<path style="mix-blend-mode:color-burn" d="M639.8 549.28C656.346 549.28 669.76 536.081 669.76 519.8C669.76 503.519 656.346 490.32 639.8 490.32C623.254 490.32 609.84 503.519 609.84 519.8C609.84 536.081 623.254 549.28 639.8 549.28Z" fill="url(#paint3_radial_72_788)"/>
<path d="M639.91 532.83C652.005 532.83 661.81 523.186 661.81 511.29C661.81 499.394 652.005 489.75 639.91 489.75C627.815 489.75 618.01 499.394 618.01 511.29C618.01 523.186 627.815 532.83 639.91 532.83Z" fill="url(#paint4_linear_72_788)"/>
<g style="mix-blend-mode:overlay">
<path d="M1215.42 29.29C1216.74 29.29 1217.81 28.2378 1217.81 26.94C1217.81 25.6421 1216.74 24.59 1215.42 24.59C1214.1 24.59 1213.03 25.6421 1213.03 26.94C1213.03 28.2378 1214.1 29.29 1215.42 29.29Z" fill="white"/>
<path d="M1231.68 29.29C1233 29.29 1234.07 28.2378 1234.07 26.94C1234.07 25.6421 1233 24.59 1231.68 24.59C1230.36 24.59 1229.29 25.6421 1229.29 26.94C1229.29 28.2378 1230.36 29.29 1231.68 29.29Z" fill="white"/>
<path d="M1247.94 29.29C1249.26 29.29 1250.33 28.2378 1250.33 26.94C1250.33 25.6421 1249.26 24.59 1247.94 24.59C1246.62 24.59 1245.55 25.6421 1245.55 26.94C1245.55 28.2378 1246.62 29.29 1247.94 29.29Z" fill="white"/>
<path d="M1264.2 29.29C1265.52 29.29 1266.59 28.2378 1266.59 26.94C1266.59 25.6421 1265.52 24.59 1264.2 24.59C1262.88 24.59 1261.81 25.6421 1261.81 26.94C1261.81 28.2378 1262.88 29.29 1264.2 29.29Z" fill="white"/>
<path d="M1280.46 29.29C1281.78 29.29 1282.85 28.2378 1282.85 26.94C1282.85 25.6421 1281.78 24.59 1280.46 24.59C1279.14 24.59 1278.07 25.6421 1278.07 26.94C1278.07 28.2378 1279.14 29.29 1280.46 29.29Z" fill="white"/>
<path d="M1296.73 29.29C1298.05 29.29 1299.12 28.2378 1299.12 26.94C1299.12 25.6421 1298.05 24.59 1296.73 24.59C1295.41 24.59 1294.34 25.6421 1294.34 26.94C1294.34 28.2378 1295.41 29.29 1296.73 29.29Z" fill="white"/>
<path d="M1215.42 45.29C1216.74 45.29 1217.81 44.2378 1217.81 42.94C1217.81 41.6421 1216.74 40.59 1215.42 40.59C1214.1 40.59 1213.03 41.6421 1213.03 42.94C1213.03 44.2378 1214.1 45.29 1215.42 45.29Z" fill="white"/>
<path d="M1231.68 45.29C1233 45.29 1234.07 44.2378 1234.07 42.94C1234.07 41.6421 1233 40.59 1231.68 40.59C1230.36 40.59 1229.29 41.6421 1229.29 42.94C1229.29 44.2378 1230.36 45.29 1231.68 45.29Z" fill="white"/>
<path d="M1247.94 45.29C1249.26 45.29 1250.33 44.2378 1250.33 42.94C1250.33 41.6421 1249.26 40.59 1247.94 40.59C1246.62 40.59 1245.55 41.6421 1245.55 42.94C1245.55 44.2378 1246.62 45.29 1247.94 45.29Z" fill="white"/>
<path d="M1264.2 45.29C1265.52 45.29 1266.59 44.2378 1266.59 42.94C1266.59 41.6421 1265.52 40.59 1264.2 40.59C1262.88 40.59 1261.81 41.6421 1261.81 42.94C1261.81 44.2378 1262.88 45.29 1264.2 45.29Z" fill="white"/>
<path d="M1280.46 45.29C1281.78 45.29 1282.85 44.2378 1282.85 42.94C1282.85 41.6421 1281.78 40.59 1280.46 40.59C1279.14 40.59 1278.07 41.6421 1278.07 42.94C1278.07 44.2378 1279.14 45.29 1280.46 45.29Z" fill="white"/>
<path d="M1296.73 45.29C1298.05 45.29 1299.12 44.2378 1299.12 42.94C1299.12 41.6421 1298.05 40.59 1296.73 40.59C1295.41 40.59 1294.34 41.6421 1294.34 42.94C1294.34 44.2378 1295.41 45.29 1296.73 45.29Z" fill="white"/>
<path d="M1215.42 61.29C1216.74 61.29 1217.81 60.2378 1217.81 58.94C1217.81 57.6421 1216.74 56.59 1215.42 56.59C1214.1 56.59 1213.03 57.6421 1213.03 58.94C1213.03 60.2378 1214.1 61.29 1215.42 61.29Z" fill="white"/>
<path d="M1231.68 61.29C1233 61.29 1234.07 60.2378 1234.07 58.94C1234.07 57.6421 1233 56.59 1231.68 56.59C1230.36 56.59 1229.29 57.6421 1229.29 58.94C1229.29 60.2378 1230.36 61.29 1231.68 61.29Z" fill="white"/>
<path d="M1247.94 61.29C1249.26 61.29 1250.33 60.2378 1250.33 58.94C1250.33 57.6421 1249.26 56.59 1247.94 56.59C1246.62 56.59 1245.55 57.6421 1245.55 58.94C1245.55 60.2378 1246.62 61.29 1247.94 61.29Z" fill="white"/>
<path d="M1264.2 61.29C1265.52 61.29 1266.59 60.2378 1266.59 58.94C1266.59 57.6421 1265.52 56.59 1264.2 56.59C1262.88 56.59 1261.81 57.6421 1261.81 58.94C1261.81 60.2378 1262.88 61.29 1264.2 61.29Z" fill="white"/>
<path d="M1280.46 61.29C1281.78 61.29 1282.85 60.2378 1282.85 58.94C1282.85 57.6421 1281.78 56.59 1280.46 56.59C1279.14 56.59 1278.07 57.6421 1278.07 58.94C1278.07 60.2378 1279.14 61.29 1280.46 61.29Z" fill="white"/>
<path d="M1296.73 61.29C1298.05 61.29 1299.12 60.2378 1299.12 58.94C1299.12 57.6421 1298.05 56.59 1296.73 56.59C1295.41 56.59 1294.34 57.6421 1294.34 58.94C1294.34 60.2378 1295.41 61.29 1296.73 61.29Z" fill="white"/>
<path d="M1215.42 77.29C1216.74 77.29 1217.81 76.2378 1217.81 74.94C1217.81 73.6421 1216.74 72.59 1215.42 72.59C1214.1 72.59 1213.03 73.6421 1213.03 74.94C1213.03 76.2378 1214.1 77.29 1215.42 77.29Z" fill="white"/>
<path d="M1231.68 77.29C1233 77.29 1234.07 76.2378 1234.07 74.94C1234.07 73.6421 1233 72.59 1231.68 72.59C1230.36 72.59 1229.29 73.6421 1229.29 74.94C1229.29 76.2378 1230.36 77.29 1231.68 77.29Z" fill="white"/>
<path d="M1247.94 77.29C1249.26 77.29 1250.33 76.2378 1250.33 74.94C1250.33 73.6421 1249.26 72.59 1247.94 72.59C1246.62 72.59 1245.55 73.6421 1245.55 74.94C1245.55 76.2378 1246.62 77.29 1247.94 77.29Z" fill="white"/>
<path d="M1264.2 77.29C1265.52 77.29 1266.59 76.2378 1266.59 74.94C1266.59 73.6421 1265.52 72.59 1264.2 72.59C1262.88 72.59 1261.81 73.6421 1261.81 74.94C1261.81 76.2378 1262.88 77.29 1264.2 77.29Z" fill="white"/>
<path d="M1280.46 77.29C1281.78 77.29 1282.85 76.2378 1282.85 74.94C1282.85 73.6421 1281.78 72.59 1280.46 72.59C1279.14 72.59 1278.07 73.6421 1278.07 74.94C1278.07 76.2378 1279.14 77.29 1280.46 77.29Z" fill="white"/>
<path d="M1296.73 77.29C1298.05 77.29 1299.12 76.2378 1299.12 74.94C1299.12 73.6421 1298.05 72.59 1296.73 72.59C1295.41 72.59 1294.34 73.6421 1294.34 74.94C1294.34 76.2378 1295.41 77.29 1296.73 77.29Z" fill="white"/>
<path d="M1215.42 93.29C1216.74 93.29 1217.81 92.2378 1217.81 90.94C1217.81 89.6421 1216.74 88.59 1215.42 88.59C1214.1 88.59 1213.03 89.6421 1213.03 90.94C1213.03 92.2378 1214.1 93.29 1215.42 93.29Z" fill="white"/>
<path d="M1231.68 93.29C1233 93.29 1234.07 92.2378 1234.07 90.94C1234.07 89.6421 1233 88.59 1231.68 88.59C1230.36 88.59 1229.29 89.6421 1229.29 90.94C1229.29 92.2378 1230.36 93.29 1231.68 93.29Z" fill="white"/>
<path d="M1247.94 93.29C1249.26 93.29 1250.33 92.2378 1250.33 90.94C1250.33 89.6421 1249.26 88.59 1247.94 88.59C1246.62 88.59 1245.55 89.6421 1245.55 90.94C1245.55 92.2378 1246.62 93.29 1247.94 93.29Z" fill="white"/>
<path d="M1264.2 93.29C1265.52 93.29 1266.59 92.2378 1266.59 90.94C1266.59 89.6421 1265.52 88.59 1264.2 88.59C1262.88 88.59 1261.81 89.6421 1261.81 90.94C1261.81 92.2378 1262.88 93.29 1264.2 93.29Z" fill="white"/>
<path d="M1280.46 93.29C1281.78 93.29 1282.85 92.2378 1282.85 90.94C1282.85 89.6421 1281.78 88.59 1280.46 88.59C1279.14 88.59 1278.07 89.6421 1278.07 90.94C1278.07 92.2378 1279.14 93.29 1280.46 93.29Z" fill="white"/>
<path d="M1296.73 93.29C1298.05 93.29 1299.12 92.2378 1299.12 90.94C1299.12 89.6421 1298.05 88.59 1296.73 88.59C1295.41 88.59 1294.34 89.6421 1294.34 90.94C1294.34 92.2378 1295.41 93.29 1296.73 93.29Z" fill="white"/>
<path d="M1215.42 109.29C1216.74 109.29 1217.81 108.238 1217.81 106.94C1217.81 105.642 1216.74 104.59 1215.42 104.59C1214.1 104.59 1213.03 105.642 1213.03 106.94C1213.03 108.238 1214.1 109.29 1215.42 109.29Z" fill="white"/>
<path d="M1231.68 109.29C1233 109.29 1234.07 108.238 1234.07 106.94C1234.07 105.642 1233 104.59 1231.68 104.59C1230.36 104.59 1229.29 105.642 1229.29 106.94C1229.29 108.238 1230.36 109.29 1231.68 109.29Z" fill="white"/>
<path d="M1247.94 109.29C1249.26 109.29 1250.33 108.238 1250.33 106.94C1250.33 105.642 1249.26 104.59 1247.94 104.59C1246.62 104.59 1245.55 105.642 1245.55 106.94C1245.55 108.238 1246.62 109.29 1247.94 109.29Z" fill="white"/>
<path d="M1264.2 109.29C1265.52 109.29 1266.59 108.238 1266.59 106.94C1266.59 105.642 1265.52 104.59 1264.2 104.59C1262.88 104.59 1261.81 105.642 1261.81 106.94C1261.81 108.238 1262.88 109.29 1264.2 109.29Z" fill="white"/>
<path d="M1280.46 109.29C1281.78 109.29 1282.85 108.238 1282.85 106.94C1282.85 105.642 1281.78 104.59 1280.46 104.59C1279.14 104.59 1278.07 105.642 1278.07 106.94C1278.07 108.238 1279.14 109.29 1280.46 109.29Z" fill="white"/>
<path d="M1296.73 109.29C1298.05 109.29 1299.12 108.238 1299.12 106.94C1299.12 105.642 1298.05 104.59 1296.73 104.59C1295.41 104.59 1294.34 105.642 1294.34 106.94C1294.34 108.238 1295.41 109.29 1296.73 109.29Z" fill="white"/>
<path d="M1215.42 125.29C1216.74 125.29 1217.81 124.238 1217.81 122.94C1217.81 121.642 1216.74 120.59 1215.42 120.59C1214.1 120.59 1213.03 121.642 1213.03 122.94C1213.03 124.238 1214.1 125.29 1215.42 125.29Z" fill="white"/>
<path d="M1231.68 125.29C1233 125.29 1234.07 124.238 1234.07 122.94C1234.07 121.642 1233 120.59 1231.68 120.59C1230.36 120.59 1229.29 121.642 1229.29 122.94C1229.29 124.238 1230.36 125.29 1231.68 125.29Z" fill="white"/>
<path d="M1247.94 125.29C1249.26 125.29 1250.33 124.238 1250.33 122.94C1250.33 121.642 1249.26 120.59 1247.94 120.59C1246.62 120.59 1245.55 121.642 1245.55 122.94C1245.55 124.238 1246.62 125.29 1247.94 125.29Z" fill="white"/>
<path d="M1264.2 125.29C1265.52 125.29 1266.59 124.238 1266.59 122.94C1266.59 121.642 1265.52 120.59 1264.2 120.59C1262.88 120.59 1261.81 121.642 1261.81 122.94C1261.81 124.238 1262.88 125.29 1264.2 125.29Z" fill="white"/>
<path d="M1280.46 125.29C1281.78 125.29 1282.85 124.238 1282.85 122.94C1282.85 121.642 1281.78 120.59 1280.46 120.59C1279.14 120.59 1278.07 121.642 1278.07 122.94C1278.07 124.238 1279.14 125.29 1280.46 125.29Z" fill="white"/>
<path d="M1296.73 125.29C1298.05 125.29 1299.12 124.238 1299.12 122.94C1299.12 121.642 1298.05 120.59 1296.73 120.59C1295.41 120.59 1294.34 121.642 1294.34 122.94C1294.34 124.238 1295.41 125.29 1296.73 125.29Z" fill="white"/>
<path d="M1215.42 141.29C1216.74 141.29 1217.81 140.238 1217.81 138.94C1217.81 137.642 1216.74 136.59 1215.42 136.59C1214.1 136.59 1213.03 137.642 1213.03 138.94C1213.03 140.238 1214.1 141.29 1215.42 141.29Z" fill="white"/>
<path d="M1231.68 141.29C1233 141.29 1234.07 140.238 1234.07 138.94C1234.07 137.642 1233 136.59 1231.68 136.59C1230.36 136.59 1229.29 137.642 1229.29 138.94C1229.29 140.238 1230.36 141.29 1231.68 141.29Z" fill="white"/>
<path d="M1247.94 141.29C1249.26 141.29 1250.33 140.238 1250.33 138.94C1250.33 137.642 1249.26 136.59 1247.94 136.59C1246.62 136.59 1245.55 137.642 1245.55 138.94C1245.55 140.238 1246.62 141.29 1247.94 141.29Z" fill="white"/>
<path d="M1264.2 141.29C1265.52 141.29 1266.59 140.238 1266.59 138.94C1266.59 137.642 1265.52 136.59 1264.2 136.59C1262.88 136.59 1261.81 137.642 1261.81 138.94C1261.81 140.238 1262.88 141.29 1264.2 141.29Z" fill="white"/>
<path d="M1280.46 141.29C1281.78 141.29 1282.85 140.238 1282.85 138.94C1282.85 137.642 1281.78 136.59 1280.46 136.59C1279.14 136.59 1278.07 137.642 1278.07 138.94C1278.07 140.238 1279.14 141.29 1280.46 141.29Z" fill="white"/>
<path d="M1296.73 141.29C1298.05 141.29 1299.12 140.238 1299.12 138.94C1299.12 137.642 1298.05 136.59 1296.73 136.59C1295.41 136.59 1294.34 137.642 1294.34 138.94C1294.34 140.238 1295.41 141.29 1296.73 141.29Z" fill="white"/>
<path d="M1215.42 157.29C1216.74 157.29 1217.81 156.238 1217.81 154.94C1217.81 153.642 1216.74 152.59 1215.42 152.59C1214.1 152.59 1213.03 153.642 1213.03 154.94C1213.03 156.238 1214.1 157.29 1215.42 157.29Z" fill="white"/>
<path d="M1231.68 157.29C1233 157.29 1234.07 156.238 1234.07 154.94C1234.07 153.642 1233 152.59 1231.68 152.59C1230.36 152.59 1229.29 153.642 1229.29 154.94C1229.29 156.238 1230.36 157.29 1231.68 157.29Z" fill="white"/>
<path d="M1247.94 157.29C1249.26 157.29 1250.33 156.238 1250.33 154.94C1250.33 153.642 1249.26 152.59 1247.94 152.59C1246.62 152.59 1245.55 153.642 1245.55 154.94C1245.55 156.238 1246.62 157.29 1247.94 157.29Z" fill="white"/>
<path d="M1264.2 157.29C1265.52 157.29 1266.59 156.238 1266.59 154.94C1266.59 153.642 1265.52 152.59 1264.2 152.59C1262.88 152.59 1261.81 153.642 1261.81 154.94C1261.81 156.238 1262.88 157.29 1264.2 157.29Z" fill="white"/>
<path d="M1280.46 157.29C1281.78 157.29 1282.85 156.238 1282.85 154.94C1282.85 153.642 1281.78 152.59 1280.46 152.59C1279.14 152.59 1278.07 153.642 1278.07 154.94C1278.07 156.238 1279.14 157.29 1280.46 157.29Z" fill="white"/>
<path d="M1296.73 157.29C1298.05 157.29 1299.12 156.238 1299.12 154.94C1299.12 153.642 1298.05 152.59 1296.73 152.59C1295.41 152.59 1294.34 153.642 1294.34 154.94C1294.34 156.238 1295.41 157.29 1296.73 157.29Z" fill="white"/>
<path d="M1215.42 173.29C1216.74 173.29 1217.81 172.238 1217.81 170.94C1217.81 169.642 1216.74 168.59 1215.42 168.59C1214.1 168.59 1213.03 169.642 1213.03 170.94C1213.03 172.238 1214.1 173.29 1215.42 173.29Z" fill="white"/>
<path d="M1231.68 173.29C1233 173.29 1234.07 172.238 1234.07 170.94C1234.07 169.642 1233 168.59 1231.68 168.59C1230.36 168.59 1229.29 169.642 1229.29 170.94C1229.29 172.238 1230.36 173.29 1231.68 173.29Z" fill="white"/>
<path d="M1247.94 173.29C1249.26 173.29 1250.33 172.238 1250.33 170.94C1250.33 169.642 1249.26 168.59 1247.94 168.59C1246.62 168.59 1245.55 169.642 1245.55 170.94C1245.55 172.238 1246.62 173.29 1247.94 173.29Z" fill="white"/>
<path d="M1264.2 173.29C1265.52 173.29 1266.59 172.238 1266.59 170.94C1266.59 169.642 1265.52 168.59 1264.2 168.59C1262.88 168.59 1261.81 169.642 1261.81 170.94C1261.81 172.238 1262.88 173.29 1264.2 173.29Z" fill="white"/>
<path d="M1280.46 173.29C1281.78 173.29 1282.85 172.238 1282.85 170.94C1282.85 169.642 1281.78 168.59 1280.46 168.59C1279.14 168.59 1278.07 169.642 1278.07 170.94C1278.07 172.238 1279.14 173.29 1280.46 173.29Z" fill="white"/>
<path d="M1296.73 173.29C1298.05 173.29 1299.12 172.238 1299.12 170.94C1299.12 169.642 1298.05 168.59 1296.73 168.59C1295.41 168.59 1294.34 169.642 1294.34 170.94C1294.34 172.238 1295.41 173.29 1296.73 173.29Z" fill="white"/>
<path d="M1215.42 189.29C1216.74 189.29 1217.81 188.238 1217.81 186.94C1217.81 185.642 1216.74 184.59 1215.42 184.59C1214.1 184.59 1213.03 185.642 1213.03 186.94C1213.03 188.238 1214.1 189.29 1215.42 189.29Z" fill="white"/>
<path d="M1231.68 189.29C1233 189.29 1234.07 188.238 1234.07 186.94C1234.07 185.642 1233 184.59 1231.68 184.59C1230.36 184.59 1229.29 185.642 1229.29 186.94C1229.29 188.238 1230.36 189.29 1231.68 189.29Z" fill="white"/>
<path d="M1247.94 189.29C1249.26 189.29 1250.33 188.238 1250.33 186.94C1250.33 185.642 1249.26 184.59 1247.94 184.59C1246.62 184.59 1245.55 185.642 1245.55 186.94C1245.55 188.238 1246.62 189.29 1247.94 189.29Z" fill="white"/>
<path d="M1264.2 189.29C1265.52 189.29 1266.59 188.238 1266.59 186.94C1266.59 185.642 1265.52 184.59 1264.2 184.59C1262.88 184.59 1261.81 185.642 1261.81 186.94C1261.81 188.238 1262.88 189.29 1264.2 189.29Z" fill="white"/>
<path d="M1280.46 189.29C1281.78 189.29 1282.85 188.238 1282.85 186.94C1282.85 185.642 1281.78 184.59 1280.46 184.59C1279.14 184.59 1278.07 185.642 1278.07 186.94C1278.07 188.238 1279.14 189.29 1280.46 189.29Z" fill="white"/>
<path d="M1296.73 189.29C1298.05 189.29 1299.12 188.238 1299.12 186.94C1299.12 185.642 1298.05 184.59 1296.73 184.59C1295.41 184.59 1294.34 185.642 1294.34 186.94C1294.34 188.238 1295.41 189.29 1296.73 189.29Z" fill="white"/>
<path d="M1215.42 205.29C1216.74 205.29 1217.81 204.238 1217.81 202.94C1217.81 201.642 1216.74 200.59 1215.42 200.59C1214.1 200.59 1213.03 201.642 1213.03 202.94C1213.03 204.238 1214.1 205.29 1215.42 205.29Z" fill="white"/>
<path d="M1231.68 205.29C1233 205.29 1234.07 204.238 1234.07 202.94C1234.07 201.642 1233 200.59 1231.68 200.59C1230.36 200.59 1229.29 201.642 1229.29 202.94C1229.29 204.238 1230.36 205.29 1231.68 205.29Z" fill="white"/>
<path d="M1247.94 205.29C1249.26 205.29 1250.33 204.238 1250.33 202.94C1250.33 201.642 1249.26 200.59 1247.94 200.59C1246.62 200.59 1245.55 201.642 1245.55 202.94C1245.55 204.238 1246.62 205.29 1247.94 205.29Z" fill="white"/>
<path d="M1264.2 205.29C1265.52 205.29 1266.59 204.238 1266.59 202.94C1266.59 201.642 1265.52 200.59 1264.2 200.59C1262.88 200.59 1261.81 201.642 1261.81 202.94C1261.81 204.238 1262.88 205.29 1264.2 205.29Z" fill="white"/>
<path d="M1280.46 205.29C1281.78 205.29 1282.85 204.238 1282.85 202.94C1282.85 201.642 1281.78 200.59 1280.46 200.59C1279.14 200.59 1278.07 201.642 1278.07 202.94C1278.07 204.238 1279.14 205.29 1280.46 205.29Z" fill="white"/>
<path d="M1296.73 205.29C1298.05 205.29 1299.12 204.238 1299.12 202.94C1299.12 201.642 1298.05 200.59 1296.73 200.59C1295.41 200.59 1294.34 201.642 1294.34 202.94C1294.34 204.238 1295.41 205.29 1296.73 205.29Z" fill="white"/>
</g>
<defs>
<linearGradient id="paint0_linear_72_788" x1="142.23" y1="757.95" x2="1332.22" y2="-64.9501" gradientUnits="userSpaceOnUse">
<stop stop-color="#FAB662"/>
<stop offset="1" stop-color="#F8EBDC"/>
</linearGradient>
<linearGradient id="paint1_linear_72_788" x1="-104.24" y1="605.2" x2="603.84" y2="605.2" gradientUnits="userSpaceOnUse">
<stop stop-color="#FF8A00"/>
<stop offset="1" stop-color="#FFBC00"/>
</linearGradient>
<linearGradient id="paint2_linear_72_788" x1="745.34" y1="121.26" x2="1473.38" y2="121.26" gradientUnits="userSpaceOnUse">
<stop stop-color="#FF8A00"/>
<stop offset="1" stop-color="#FFBC00"/>
</linearGradient>
<radialGradient id="paint3_radial_72_788" cx="0" cy="0" r="1" gradientUnits="userSpaceOnUse" gradientTransform="translate(642.08 519.8) scale(30.0696 29.48)">
<stop offset="0.2" stop-color="#4D4D4D"/>
<stop offset="0.58" stop-color="#A9A9A9"/>
<stop offset="0.87" stop-color="#E7E7E7"/>
<stop offset="1" stop-color="white"/>
</radialGradient>
<linearGradient id="paint4_linear_72_788" x1="639.91" y1="527.96" x2="639.91" y2="492.02" gradientUnits="userSpaceOnUse">
<stop stop-color="#FF8A00"/>
<stop offset="1" stop-color="#FFBC00"/>
</linearGradient>
</defs>
</svg>
