<svg width="93" height="100" viewBox="0 0 93 100" fill="none" xmlns="http://www.w3.org/2000/svg">
<path d="M46.5203 76.0824C49.5324 79.0908 52.3707 81.9227 55.2089 84.7516C57.4901 87.03 58.3979 89.7824 57.7495 92.9174C57.0569 96.285 54.9879 98.5723 51.6751 99.5732C48.3152 100.592 45.3266 99.7645 42.8332 97.3448C40.0834 94.6748 37.3925 91.9489 34.6898 89.2378C34.4631 88.994 34.2543 88.7343 34.065 88.4607C32.1581 89.0494 30.5282 89.7794 28.8129 90.0238C27.1712 90.2593 25.45 90.0856 23.7818 89.9178C23.1457 89.8084 22.4919 89.9464 21.9545 90.3034C17.2653 93.3678 12.3286 93.6975 7.41247 91.0776C2.49637 88.4577 0.0442095 84.1216 -6.755e-08 78.5462C-0.0235785 75.685 0.884192 73.0621 2.49342 70.6689C2.76965 70.231 2.88236 69.7098 2.81173 69.197C1.88628 64.0455 3.15656 59.5917 6.89964 55.8708C10.5838 52.2108 14.2542 48.541 17.9108 44.8614C18.4277 44.3382 18.8664 43.7433 19.2135 43.0952C26.3578 29.662 33.4893 16.2191 40.608 2.76635C42.2555 -0.321602 44.6841 -0.701341 47.1569 1.75666C61.8247 16.4065 76.4904 31.0515 91.1543 45.6915C93.5121 48.0465 93.1526 50.5633 90.217 52.1176C76.7262 59.2571 63.2384 66.4005 49.7535 73.5478C48.5893 74.166 47.6432 75.1875 46.5203 76.0824ZM82.9224 47.9729L44.8344 9.91073L25.9982 45.4442C26.0458 45.5413 26.102 45.6339 26.1662 45.7209C33.0432 52.5896 39.9095 59.4632 46.7649 66.3416C47.2718 66.8479 47.6226 66.6566 48.1 66.4034C57.0363 61.67 65.9764 56.9433 74.9205 52.2236C77.6438 50.7841 80.3671 49.3417 82.9224 47.9729ZM41.221 71.2606L21.4122 51.4612C18.1554 54.6934 14.7365 57.9785 11.4297 61.4109C8.89497 64.0396 8.77708 68.1432 11.241 70.7366C14.7346 74.4221 18.3273 78.0124 22.0193 81.5076C24.4921 83.8626 28.5447 83.9656 31.0086 81.6342C34.5866 78.2372 37.9377 74.6134 41.221 71.2606ZM39.1579 83.6801C42.1052 86.6238 44.9818 89.5263 47.8849 92.3817C48.1999 92.7182 48.6358 92.9159 49.0968 92.9313C49.5578 92.9468 50.006 92.7787 50.3429 92.4641C50.6798 92.1495 50.8778 91.7141 50.8933 91.2536C50.9088 90.7932 50.7405 90.3455 50.4255 90.009C47.5135 87.0653 44.5603 84.1658 41.6307 81.2633L39.1579 83.6801ZM15.5588 85.5169C12.7677 82.7234 10.0208 79.9563 7.23564 77.1745C6.68154 79.6972 7.34469 81.9433 9.25159 83.7802C11.0436 85.5022 13.2098 85.9879 15.55 85.5169H15.5588Z" fill="#FDB912"/>
</svg>
