<svg width="44" height="43" viewBox="0 0 44 43" fill="none" xmlns="http://www.w3.org/2000/svg">
<g clip-path="url(#clip0_20_137)">
<path d="M43.5551 21.3529C43.5551 9.55989 33.9755 0.00195312 22.1558 0.00195312C10.3361 0.00195312 0.756561 9.55989 0.756561 21.3529C0.756561 32.0118 8.58066 40.844 18.8122 42.4454V27.5247H13.3787V21.3529H18.8122V16.649C18.8122 11.2987 22.0054 8.34217 26.8954 8.34217C29.2359 8.34217 31.6852 8.75918 31.6852 8.75918V14.0135H28.9852C26.327 14.0135 25.4994 15.6608 25.4994 17.3496V21.3529H31.4343L30.4856 27.5247H25.4994V42.4454C35.731 40.844 43.5551 32.0118 43.5551 21.3529Z" fill="white"/>
</g>
<defs>
<clipPath id="clip0_20_137">
<rect width="42.7985" height="42.7019" fill="white" transform="translate(0.756561 0.00195312)"/>
</clipPath>
</defs>
</svg>
