<svg width="212" height="123" viewBox="0 0 212 123" fill="none" xmlns="http://www.w3.org/2000/svg">
<path d="M148.364 32.3594C148.12 30.4804 147.726 28.639 147.218 26.8352C146.636 24.8059 145.884 22.833 144.945 20.9352C143.705 18.3798 142.239 15.9559 140.398 13.7763L137.241 10.3002C137.166 10.2062 137.072 10.1123 136.978 10.0371C133.746 7.0871 130.157 4.71958 126.042 3.12244C124.727 2.61512 123.393 2.12658 122.021 1.80716C120.706 1.48773 119.391 1.26225 118.056 1.05556C116.422 0.792505 114.768 0.567027 113.115 0.491868C109.864 0.341549 106.595 0.28518 103.344 0.679766C102.085 0.830085 100.789 0.942824 99.5485 1.18709C97.895 1.50652 96.2603 1.90111 94.6256 2.31448C92.9157 2.74665 91.2434 3.27276 89.5899 3.85525C87.5042 4.58805 85.4561 5.48996 83.502 6.5234C81.2848 7.66958 79.1427 8.98487 77.0947 10.4317C72.3784 13.7763 68.3762 17.8161 65.2571 22.7014C64.2988 24.1858 63.4908 25.7454 63.1902 27.5304C62.9835 28.7893 63.6975 29.9731 64.8813 30.161C65.5765 30.2737 66.2905 30.2737 66.9857 30.1234C68.9775 29.6913 70.7813 28.8269 72.4536 27.6807C73.7876 26.7788 75.1029 25.8581 76.437 24.9562C77.508 24.2234 78.6918 23.6034 79.8192 22.9645C81.8485 21.8183 83.8778 20.6534 86.0198 19.7514C88.1243 18.8683 90.2475 18.0416 92.4272 17.3088C94.2686 16.7075 96.1287 16.219 98.0077 15.8432C100.263 15.3922 102.555 15.1291 104.866 15.0728C109.451 14.9788 113.885 15.5801 118.019 17.7033C119.691 18.5677 121.194 19.6387 122.472 21.0291C123.881 22.5511 124.896 24.3174 125.197 26.3467C125.554 28.6014 125.309 30.875 124.332 33.0171C123.318 35.2343 121.965 37.1696 119.973 38.6164C119.052 39.2929 118 39.819 117.155 40.6081C116.478 41.2282 116.459 41.6792 117.117 42.318C117.906 43.0696 118.846 43.5957 119.748 44.1782C121.363 45.2117 122.171 46.8276 122.848 48.5187C123.13 49.2327 123.224 50.0406 123.336 50.8298C123.562 52.3142 123.449 53.7798 123.13 55.2454C122.792 56.7674 122.153 58.1766 121.307 59.4919C121.27 59.5483 121.232 59.6047 121.213 59.661C121.1 59.8489 120.556 60.6193 120.48 60.7321C120.405 60.826 119.654 61.5776 119.503 61.7279C118.958 62.254 118.413 62.7238 118.094 62.9868C114.524 65.918 110.334 67.177 105.787 67.44C104.039 67.534 102.311 67.44 100.563 67.2709C99.0788 67.1206 97.6319 66.8575 96.2039 66.5005C94.2686 66.0308 92.3708 65.4295 90.5858 64.5652C89.1953 63.8887 87.8236 63.1935 87.2787 61.5588C86.9593 60.5817 86.6963 59.5671 86.5459 58.5524C86.1514 55.997 85.9447 53.4416 85.8695 50.8674C85.7568 46.3015 85.7192 41.7355 85.8131 37.1696C85.8319 35.9483 86.0574 34.7833 86.5084 33.6747C87.2787 31.8333 89.5899 30.3865 91.5816 30.5744C93.2163 30.7247 94.7195 31.1944 96.0348 32.2091C98.4399 34.0881 99.6049 36.5308 99.2666 39.6311C99.1915 40.3639 99.1351 41.0967 99.06 41.8295C98.8157 43.9152 98.609 45.982 98.4023 48.0677C98.2144 50.0594 97.9889 52.0512 98.2144 54.0617C98.3272 55.1515 98.7405 56.1285 99.8303 56.5043C101.653 57.1432 103.551 57.3687 105.449 56.8801C107.628 56.3352 109.169 54.4938 109.169 52.2578C109.169 50.2849 108.323 48.6878 106.689 47.5228C106.031 47.0531 105.298 46.7148 104.678 46.1887C103.607 45.3056 102.818 44.291 103.025 42.7878C103.119 42.0738 103.419 41.4537 103.757 40.8336C104.828 38.8795 106.407 37.3387 108.004 35.8355C109.037 34.8397 110.071 33.8814 110.766 32.6037C112.175 30.0483 111.706 27.6432 109.244 26.0272C107.854 25.1065 106.275 24.712 104.641 24.4301C102.16 24.0167 99.68 24.1858 97.2186 24.5428C95.1517 24.8435 93.1224 25.332 91.1307 26.0085C89.5711 26.5346 88.0867 27.1734 86.6587 27.9438C84.6294 29.0336 82.7316 30.3301 80.9841 31.8145C79.744 32.8855 78.5791 34.0317 77.5268 35.2906C76.3243 36.7562 75.2157 38.297 74.2762 39.9505C73.2427 41.7543 72.4348 43.6521 71.8335 45.625C71.2322 47.598 70.8752 49.6461 70.7249 51.7129C70.537 54.3999 70.7061 57.0492 71.1946 59.6798C71.4765 61.2394 71.9462 62.7614 72.416 64.2833C73.2052 66.8951 74.3701 69.319 75.8921 71.5362C77.4517 73.8286 79.481 75.6888 81.7733 77.2483C85.024 79.4655 88.594 80.9687 92.4084 81.9646C94.7947 82.5846 97.2186 83.0168 99.68 83.2047C103.945 83.5241 108.211 83.3362 112.42 82.547C114.956 82.0773 117.455 81.4009 119.879 80.5177C122.528 79.5595 125.065 78.3569 127.489 76.9289C131.021 74.862 134.159 72.3254 136.94 69.319C140.717 65.2228 143.31 60.4502 145.339 55.3018C146.523 52.3142 147.425 49.2515 148.007 46.076C148.402 43.9339 148.628 41.7919 148.759 39.6311C148.872 37.226 148.665 34.7833 148.364 32.3594Z" fill="url(#paint0_linear_20_194)"/>
<path d="M20.2554 118.548C19.8233 119.394 19.2032 120.089 18.3952 120.653C17.5873 121.217 16.6102 121.63 15.4828 121.912C14.3554 122.194 13.0777 122.325 11.7061 122.325H0V97.6729H11.4242C13.9608 97.6729 15.9338 98.2553 17.3806 99.4015C18.8274 100.548 19.5414 102.107 19.5414 104.043V104.118C19.5414 104.813 19.4475 105.452 19.2784 105.978C19.1093 106.523 18.865 107.011 18.5831 107.444C18.2825 107.876 17.9443 108.252 17.5685 108.59C17.1739 108.928 16.7605 109.21 16.3284 109.435C17.7564 109.98 18.8838 110.713 19.6917 111.634C20.5185 112.554 20.9131 113.851 20.9131 115.486V115.561C20.9131 116.726 20.7064 117.703 20.2554 118.548ZM14.1863 105.001C14.1863 104.174 13.8857 103.554 13.2656 103.122C12.6456 102.69 11.7812 102.464 10.6163 102.464H5.26115V107.669H10.2592C11.4618 107.669 12.4013 107.462 13.1153 107.049C13.8105 106.636 14.1675 105.978 14.1675 105.057V105.001H14.1863ZM15.558 114.847C15.558 114.02 15.2386 113.381 14.5997 112.893C13.9608 112.404 12.9462 112.179 11.537 112.179H5.26115V117.609H11.7061C12.9086 117.609 13.8481 117.383 14.5245 116.951C15.201 116.519 15.5392 115.843 15.5392 114.922V114.847H15.558Z" fill="#FDB912"/>
<path d="M25.6669 122.363V97.7104H31.0972V122.363H25.6669Z" fill="#FDB912"/>
<path d="M37.2602 122.363V97.7104H55.8246V102.539H42.6153V107.538H54.2462V112.367H42.6153V117.553H55.9937V122.381H37.2602V122.363Z" fill="#FDB912"/>
<path d="M78.1469 122.363L66.1966 106.692V122.363H60.8415V97.7104H65.8395L77.3953 112.893V97.7104H82.7504V122.363H78.1469Z" fill="#FDB912"/>
<path d="M101.334 122.532H96.5421L86.5647 97.6919H92.5587L99.0036 115.054L105.449 97.6919H111.292L101.334 122.532Z" fill="#FDB912"/>
<path d="M115.106 122.363V97.7104H133.671V102.539H120.462V107.538H132.092V112.367H120.462V117.553H133.84V122.381H115.106V122.363Z" fill="#FDB912"/>
<path d="M156.012 122.363L144.062 106.692V122.363H138.706V97.7104H143.705L155.26 112.893V97.7104H160.615V122.363H156.012Z" fill="#FDB912"/>
<path d="M186.884 116.519C186.376 117.91 185.662 119.056 184.723 119.995C183.783 120.916 182.637 121.611 181.303 122.081C179.969 122.532 178.466 122.776 176.831 122.776C173.524 122.776 170.912 121.856 169.014 120.033C167.117 118.21 166.158 115.467 166.158 111.822V97.7295H171.589V111.672C171.589 113.701 172.058 115.204 172.998 116.237C173.937 117.252 175.234 117.778 176.906 117.778C178.579 117.778 179.875 117.29 180.814 116.294C181.754 115.317 182.224 113.832 182.224 111.859V97.7295H187.654V111.653C187.635 113.494 187.391 115.129 186.884 116.519Z" fill="#FDB912"/>
<path d="M193.178 122.363V97.7104H211.743V102.539H198.533V107.538H210.164V112.367H198.533V117.553H211.912V122.381H193.178V122.363Z" fill="#FDB912"/>
<defs>
<linearGradient id="paint0_linear_20_194" x1="98.1495" y1="-3.44402" x2="118.766" y2="86.9855" gradientUnits="userSpaceOnUse">
<stop stop-color="#FECE08"/>
<stop offset="1" stop-color="#EBB502"/>
</linearGradient>
</defs>
</svg>
