<svg width="43" height="43" viewBox="0 0 43 43" fill="none" xmlns="http://www.w3.org/2000/svg">
<g clip-path="url(#clip0_20_144)">
<path fill-rule="evenodd" clip-rule="evenodd" d="M21.3992 0.00195312C9.5808 0.00195312 9.53674e-07 9.56114 9.53674e-07 21.3529C9.53674e-07 33.1447 9.5808 42.7039 21.3992 42.7039C33.2177 42.7039 42.7985 33.1447 42.7985 21.3529C42.7985 9.56114 33.2177 0.00195312 21.3992 0.00195312ZM12.6983 15.7013C14.3892 15.7013 15.4424 14.5844 15.4424 13.1885C15.4109 11.7631 14.3892 10.6774 12.7302 10.6774C11.0712 10.6774 9.98664 11.7631 9.98664 13.1885C9.98664 14.5844 11.0392 15.7013 12.6672 15.7013H12.6983ZM15.1229 32.2237V17.6856H10.2734V32.2237H15.1229ZM32.6122 23.888L32.6121 32.2237H27.7627V24.4458C27.7627 22.4922 27.0609 21.1591 25.3054 21.1591C23.9656 21.1591 23.1676 22.0578 22.8171 22.9258C22.6889 23.2369 22.6574 23.6703 22.6574 24.1048V32.2241H17.8073C17.8073 32.2241 17.8712 19.0502 17.8073 17.6861H22.6574V19.7452C23.301 18.7553 24.4538 17.3443 27.0286 17.3443C30.2198 17.3443 32.6122 19.4226 32.6122 23.888Z" fill="white"/>
</g>
<defs>
<clipPath id="clip0_20_144">
<rect width="42.7985" height="42.7019" fill="white" transform="translate(0 0.00195312)"/>
</clipPath>
</defs>
</svg>
