<svg width="202" height="116" viewBox="0 0 202 116" fill="none" xmlns="http://www.w3.org/2000/svg">
<path d="M141.144 30.3094C140.912 28.5286 140.536 26.7834 140.054 25.0739C139.5 23.1507 138.785 21.2809 137.891 19.4823C136.711 17.0604 135.317 14.7633 133.565 12.6976L130.562 9.40314C130.49 9.3141 130.401 9.22506 130.312 9.15383C127.237 6.35802 123.823 4.11425 119.908 2.6006C118.657 2.11979 117.388 1.65679 116.083 1.35406C114.832 1.05133 113.58 0.837636 112.311 0.641751C110.756 0.392443 109.183 0.178751 107.61 0.10752C104.517 -0.0349414 101.407 -0.0883644 98.3147 0.285597C97.1171 0.428059 95.8837 0.534905 94.7039 0.766405C93.1308 1.06914 91.5757 1.4431 90.0205 1.83487C88.3939 2.24444 86.803 2.74306 85.2299 3.2951C83.2457 3.9896 81.2973 4.84437 79.4383 5.82379C77.329 6.91006 75.2912 8.1566 73.3428 9.52779C68.856 12.6976 65.0486 16.5262 62.0813 21.1562C61.1696 22.563 60.401 24.0411 60.115 25.7328C59.9183 26.9259 60.5976 28.0478 61.7238 28.2259C62.3852 28.3327 63.0644 28.3327 63.7258 28.1903C65.6206 27.7807 67.3366 26.9615 68.9276 25.8753C70.1967 25.0205 71.448 24.1479 72.7171 23.2931C73.736 22.5986 74.8622 22.011 75.9347 21.4055C77.8653 20.3193 79.7958 19.2152 81.8336 18.3604C83.8356 17.5234 85.8556 16.7399 87.9291 16.0454C89.6809 15.4756 91.4506 15.0126 93.2381 14.6564C95.3831 14.229 97.5639 13.9797 99.7626 13.9263C104.124 13.8373 108.343 14.4071 112.275 16.4194C113.866 17.2385 115.296 18.2536 116.512 19.5713C117.853 21.0138 118.818 22.6877 119.104 24.6109C119.443 26.7478 119.211 28.9026 118.282 30.9326C117.316 33.0339 116.029 34.8681 114.134 36.2393C113.259 36.8804 112.258 37.379 111.453 38.1269C110.81 38.7146 110.792 39.142 111.417 39.7474C112.168 40.4598 113.062 40.9584 113.92 41.5104C115.457 42.4898 116.226 44.0213 116.869 45.624C117.138 46.3007 117.227 47.0664 117.334 47.8143C117.549 49.2211 117.441 50.6101 117.138 51.9991C116.816 53.4416 116.208 54.7771 115.404 56.0237C115.368 56.0771 115.332 56.1305 115.314 56.1839C115.207 56.362 114.689 57.0921 114.617 57.199C114.546 57.288 113.831 58.0003 113.688 58.1428C113.169 58.6414 112.651 59.0866 112.347 59.3359C108.951 62.1139 104.964 63.307 100.639 63.5563C98.9761 63.6454 97.3316 63.5563 95.6692 63.3961C94.257 63.2536 92.8806 63.0043 91.5221 62.6659C89.6809 62.2208 87.8755 61.6509 86.1773 60.8318C84.8545 60.1907 83.5496 59.5318 83.0312 57.9825C82.7274 57.0565 82.4771 56.0949 82.3341 55.1333C81.9587 52.7114 81.7621 50.2896 81.6906 47.8499C81.5833 43.5227 81.5476 39.1954 81.637 34.8681C81.6548 33.7106 81.8693 32.6066 82.2984 31.5559C83.0312 29.8108 85.2299 28.4396 87.1247 28.6176C88.6799 28.7601 90.1099 29.2053 91.3612 30.1669C93.6492 31.9477 94.7575 34.2627 94.4358 37.2009C94.3643 37.8954 94.3106 38.5899 94.2391 39.2844C94.0067 41.2611 93.8101 43.2199 93.6135 45.1966C93.4347 47.0842 93.2202 48.9718 93.4347 50.8773C93.542 51.9101 93.9352 52.8361 94.972 53.1923C96.7059 53.7977 98.5113 54.0114 100.317 53.5484C102.39 53.032 103.856 51.2868 103.856 49.1677C103.856 47.2979 103.052 45.7843 101.497 44.6802C100.871 44.235 100.174 43.9144 99.5839 43.4158C98.565 42.5789 97.8142 41.6173 98.0108 40.1926C98.1002 39.5159 98.3862 38.9283 98.708 38.3406C99.7269 36.4886 101.228 35.0284 102.748 33.6038C103.731 32.66 104.714 31.7518 105.375 30.5409C106.716 28.119 106.269 25.8396 103.928 24.3082C102.605 23.4356 101.103 23.0616 99.5481 22.7945C97.1886 22.4028 94.829 22.563 92.4873 22.9014C90.521 23.1863 88.5905 23.6493 86.6957 24.2904C85.212 24.789 83.7999 25.3944 82.4414 26.1246C80.5108 27.1574 78.7054 28.3861 77.043 29.7929C75.8632 30.808 74.7549 31.8943 73.7539 33.0874C72.6099 34.4764 71.5552 35.9366 70.6615 37.5037C69.6783 39.2132 68.9097 41.0118 68.3377 42.8816C67.7656 44.7514 67.426 46.6924 67.283 48.6513C67.1043 51.1978 67.2651 53.7087 67.7299 56.2018C67.998 57.6798 68.4449 59.1222 68.8918 60.5646C69.6426 63.0399 70.7508 65.3371 72.1988 67.4384C73.6824 69.611 75.613 71.3739 77.7938 72.852C80.8862 74.9533 84.2825 76.3779 87.9112 77.3217C90.1814 77.9093 92.4873 78.3189 94.829 78.497C98.8867 78.7997 102.944 78.6216 106.949 77.8737C109.362 77.4285 111.739 76.7875 114.045 75.9505C116.566 75.0423 118.979 73.9026 121.285 72.5492C124.645 70.5904 127.63 68.1863 130.276 65.3371C133.869 61.455 136.336 56.9319 138.266 52.0526C139.392 49.2211 140.25 46.3185 140.805 43.309C141.18 41.2789 141.394 39.2488 141.52 37.2009C141.627 34.9216 141.43 32.6066 141.144 30.3094Z" fill="white"/>
<path d="M19.2697 111.993C18.8586 112.795 18.2687 113.453 17.5 113.988C16.7314 114.522 15.8019 114.914 14.7293 115.181C13.6568 115.448 12.4413 115.573 11.1364 115.573H0V92.2089H10.8682C13.2814 92.2089 15.1583 92.761 16.5347 93.8472C17.9112 94.9335 18.5904 96.4115 18.5904 98.2457V98.317C18.5904 98.9758 18.501 99.5813 18.3402 100.08C18.1793 100.596 17.9469 101.059 17.6788 101.469C17.3928 101.878 17.071 102.235 16.7135 102.555C16.3381 102.876 15.9449 103.143 15.5337 103.357C16.8923 103.873 17.9648 104.567 18.7334 105.44C19.5199 106.313 19.8953 107.541 19.8953 109.091V109.162C19.8953 110.266 19.6987 111.192 19.2697 111.993ZM13.4959 99.1539C13.4959 98.3704 13.2099 97.7827 12.62 97.3731C12.0301 96.9636 11.2079 96.7499 10.0996 96.7499H5.00511V101.683H9.75997C10.904 101.683 11.7978 101.487 12.477 101.095C13.1384 100.703 13.4781 100.08 13.4781 99.2073V99.1539H13.4959ZM14.8008 108.485C14.8008 107.702 14.497 107.096 13.8892 106.633C13.2814 106.17 12.3162 105.956 10.9755 105.956H5.00511V111.103H11.1364C12.2804 111.103 13.1742 110.889 13.8177 110.48C14.4612 110.07 14.783 109.429 14.783 108.556V108.485H14.8008Z" fill="white"/>
<path d="M24.4178 115.608V92.2445H29.5838V115.608H24.4178Z" fill="white"/>
<path d="M35.4469 115.608V92.2445H53.1078V96.8211H40.5414V101.558H51.6063V106.135H40.5414V111.049H53.2687V115.626H35.4469V115.608Z" fill="white"/>
<path d="M74.3438 115.608L62.975 100.757V115.608H57.8806V92.2445H62.6354L73.6288 106.633V92.2445H78.7233V115.608H74.3438Z" fill="white"/>
<path d="M96.4021 115.768H91.8438L82.352 92.2267H88.0542L94.1855 108.681L100.317 92.2267H105.876L96.4021 115.768Z" fill="white"/>
<path d="M109.505 115.608V92.2445H127.166V96.8211H114.599V101.558H125.664V106.135H114.599V111.049H127.326V115.626H109.505V115.608Z" fill="white"/>
<path d="M148.419 115.608L137.051 100.757V115.608H131.956V92.2445H136.711L147.704 106.633V92.2445H152.799V115.608H148.419Z" fill="white"/>
<path d="M177.789 110.07C177.306 111.388 176.627 112.474 175.733 113.364C174.839 114.237 173.749 114.896 172.48 115.341C171.211 115.768 169.781 116 168.225 116C165.079 116 162.595 115.127 160.789 113.4C158.984 111.673 158.072 109.073 158.072 105.618V92.2623H163.238V105.476C163.238 107.399 163.685 108.823 164.579 109.803C165.473 110.765 166.706 111.263 168.297 111.263C169.888 111.263 171.121 110.8 172.015 109.856C172.909 108.93 173.356 107.524 173.356 105.654V92.2623H178.522V105.458C178.504 107.203 178.271 108.752 177.789 110.07Z" fill="white"/>
<path d="M183.777 115.608V92.2445H201.438V96.8211H188.872V101.558H199.936V106.135H188.872V111.049H201.599V115.626H183.777V115.608Z" fill="white"/>
</svg>
