<svg width="724" height="374" viewBox="0 0 724 374" fill="none" xmlns="http://www.w3.org/2000/svg">
<path d="M513.69 -117.23C495.3 -120.29 476.84 -122.85 458.38 -125.49C330.88 -143.72 331.22 -249.39 255.78 -244.17C205.78 -240.7 166.63 -161.69 131.08 -206.41C52.15 -305.71 -37 -244.15 -62 -162.89C-74.75 -121.46 -68.39 -95.63 -70.25 -37.82C-73.11 50.65 -179.71 26.72 -265 78.19C-345.83 126.98 -347.75 213.67 -288.84 257.68C-196.84 326.44 -94.42 239.3 -14.79 308.74C127.55 432.89 146.21 350.74 257.48 300.09C354.16 256.09 419.02 310.76 508.48 308.58C581.17 310.9 636.77 285.25 678.88 231.58C786.81 94 684.59 -88.78 513.69 -117.23Z" fill="url(#paint0_linear_2_8)"/>
<defs>
<linearGradient id="paint0_linear_2_8" x1="254.03" y1="301.94" x2="147.75" y2="-7.77998" gradientUnits="userSpaceOnUse">
<stop stop-color="#FE8900"/>
<stop offset="1" stop-color="#FE5500"/>
</linearGradient>
</defs>
</svg>
