<svg width="683" height="435" viewBox="0 0 683 435" fill="none" xmlns="http://www.w3.org/2000/svg">
<path d="M609.33 79.0001C571.18 86.9301 569.26 72.6601 493.88 23.7201C414.47 -27.8399 294.6 6.33006 258.43 114.86C246.09 151.86 245.71 181.78 237.27 224.74C223.99 292.32 177.75 311.74 137.96 333.58C94.57 357.33 -20.04 403.15 3.59002 541.09C17.22 620.69 77.46 681.97 166.04 675.19C214.39 671.49 258.04 651.74 304.21 634.53C464.91 574.63 457.77 586.53 627.45 605.35C627.77 600.79 634.12 605.48 658.62 603.29C772.5 593.1 784.67 504.38 802.43 405.5C829 257.61 928.87 247.21 950.8 162.88C957.69 136.39 947.53 100.4 913.64 73.6801C817.52 -2.09993 677.24 64.8801 609.33 79.0001Z" fill="url(#paint0_linear_2_10)"/>
<defs>
<linearGradient id="paint0_linear_2_10" x1="359.92" y1="-2.19994" x2="517.57" y2="455.59" gradientUnits="userSpaceOnUse">
<stop stop-color="#FE8900"/>
<stop offset="1" stop-color="#FE5500"/>
</linearGradient>
</defs>
</svg>
