<svg width="129" height="74" viewBox="0 0 129 74" fill="none" xmlns="http://www.w3.org/2000/svg">
<path d="M89.6992 19.3353C89.5516 18.1993 89.313 17.086 89.0063 15.9954C88.6541 14.7685 88.1997 13.5757 87.6317 12.4284C86.882 10.8834 85.9959 9.41794 84.8826 8.10017L82.9741 5.99855C82.9286 5.94175 82.8718 5.88495 82.815 5.83951C80.8611 4.05598 78.6913 2.62461 76.2035 1.659C75.4083 1.35228 74.6017 1.05692 73.7724 0.863796C72.9772 0.670675 72.182 0.534354 71.3754 0.409393C70.3871 0.250352 69.3874 0.114031 68.3877 0.0685904C66.4224 -0.0222902 64.4458 -0.0563704 62.4805 0.182191C61.7194 0.273072 60.9355 0.341232 60.1858 0.488913C59.1861 0.682035 58.1977 0.920596 57.2094 1.17052C56.1756 1.4318 55.1646 1.74988 54.1649 2.10204C52.9039 2.54509 51.6657 3.09037 50.4842 3.71518C49.1438 4.40814 47.8487 5.20335 46.6105 6.07807C43.7591 8.10017 41.3394 10.5426 39.4536 13.4962C38.8742 14.3937 38.3858 15.3365 38.204 16.4157C38.079 17.1769 38.5107 17.8926 39.2264 18.0062C39.6467 18.0743 40.0784 18.0743 40.4987 17.9834C41.7029 17.7222 42.7935 17.1996 43.8045 16.5066C44.6111 15.9613 45.4063 15.4047 46.2129 14.8594C46.8604 14.4164 47.5761 14.0415 48.2577 13.6552C49.4846 12.9623 50.7114 12.258 52.0065 11.7127C53.2788 11.1787 54.5625 10.6789 55.8803 10.2359C56.9936 9.87234 58.1182 9.57698 59.2542 9.34978C60.6174 9.07713 62.0034 8.91809 63.4007 8.88401C66.1725 8.82721 68.8535 9.19073 71.3527 10.4744C72.3638 10.997 73.2726 11.6445 74.0451 12.4852C74.8971 13.4053 75.5105 14.4732 75.6923 15.7001C75.9081 17.0633 75.7604 18.4378 75.1697 19.7329C74.5563 21.0734 73.7383 22.2435 72.5342 23.1182C71.9775 23.5272 71.3414 23.8452 70.8302 24.3224C70.4212 24.6972 70.4098 24.9699 70.8074 25.3561C71.2846 25.8105 71.8526 26.1286 72.3978 26.4808C73.3748 27.1056 73.8633 28.0825 74.2723 29.105C74.4427 29.5366 74.4995 30.0251 74.5676 30.5022C74.7039 31.3997 74.6358 32.2858 74.4427 33.1719C74.2382 34.092 73.8519 34.944 73.3407 35.7392C73.318 35.7733 73.2953 35.8074 73.2839 35.8415C73.2158 35.9551 72.8863 36.4208 72.8409 36.489C72.7954 36.5458 72.341 37.0002 72.2502 37.0911C71.9207 37.4092 71.5913 37.6932 71.3982 37.8522C69.2397 39.6244 66.7064 40.3855 63.9573 40.5446C62.9008 40.6014 61.8557 40.5446 60.7992 40.4423C59.9018 40.3514 59.027 40.1924 58.1637 39.9765C56.9936 39.6925 55.8462 39.329 54.767 38.8065C53.9264 38.3975 53.0971 37.9772 52.7676 36.9888C52.5745 36.3981 52.4155 35.7847 52.3246 35.1712C52.086 33.6263 51.9611 32.0813 51.9156 30.525C51.8475 27.7645 51.8247 25.004 51.8815 22.2435C51.8929 21.5051 52.0292 20.8007 52.3019 20.1305C52.7676 19.0172 54.1649 18.1425 55.3691 18.2561C56.3574 18.347 57.2662 18.631 58.0614 19.2444C59.5155 20.3804 60.2198 21.8572 60.0154 23.7316C59.9699 24.1747 59.9358 24.6177 59.8904 25.0608C59.7427 26.3217 59.6178 27.5713 59.4928 28.8323C59.3792 30.0365 59.2429 31.2406 59.3792 32.4562C59.4474 33.1151 59.6973 33.7058 60.3562 33.933C61.4581 34.3192 62.6055 34.4556 63.7528 34.1602C65.0706 33.8307 66.0021 32.7175 66.0021 31.3656C66.0021 30.1728 65.4909 29.2072 64.5026 28.5029C64.105 28.2189 63.6619 28.0144 63.2871 27.6963C62.6395 27.1624 62.1624 26.5489 62.2874 25.6401C62.3442 25.2084 62.5259 24.8336 62.7304 24.4587C63.3779 23.2772 64.3322 22.3457 65.2978 21.4369C65.9226 20.8348 66.5474 20.2555 66.9677 19.483C67.8197 17.938 67.5357 16.4839 66.0476 15.5069C65.2069 14.9503 64.2527 14.7117 63.2643 14.5413C61.7648 14.2914 60.2653 14.3937 58.7771 14.6095C57.5275 14.7913 56.3006 15.0866 55.0964 15.4956C54.1536 15.8137 53.2561 16.1999 52.3927 16.6657C51.1659 17.3246 50.0185 18.1084 48.962 19.0058C48.2122 19.6534 47.5079 20.3463 46.8717 21.1075C46.1447 21.9935 45.4745 22.9251 44.9064 23.9248C44.2816 25.0153 43.7932 26.1627 43.4296 27.3555C43.0661 28.5483 42.8503 29.7866 42.7594 31.0362C42.6458 32.6607 42.748 34.2624 43.0434 35.8528C43.2138 36.7957 43.4978 37.7159 43.7818 38.6361C44.2589 40.2151 44.9632 41.6806 45.8834 43.021C46.8263 44.407 48.0532 45.5316 49.4391 46.4745C51.4044 47.815 53.5628 48.7238 55.8689 49.3259C57.3117 49.7008 58.7771 49.9621 60.2653 50.0757C62.844 50.2688 65.4228 50.1552 67.9674 49.6781C69.501 49.3941 71.0119 48.9851 72.4774 48.4512C74.0791 47.8718 75.6127 47.1448 77.0782 46.2814C79.2139 45.0318 81.111 43.4982 82.7923 41.6806C85.0757 39.2041 86.6434 36.3186 87.8703 33.2059C88.586 31.3997 89.1312 29.548 89.4834 27.6281C89.722 26.3331 89.8583 25.038 89.9378 23.7316C90.006 22.2775 89.881 20.8007 89.6992 19.3353Z" fill="url(#paint0_linear_1002_2682)"/>
<path d="M12.2462 71.444C11.9849 71.9552 11.61 72.3755 11.1215 72.7163C10.633 73.0571 10.0423 73.307 9.36071 73.4774C8.6791 73.6478 7.90662 73.7274 7.07733 73.7274H0V58.8229H6.90693C8.44054 58.8229 9.63335 59.1751 10.5081 59.8681C11.3828 60.561 11.8145 61.5039 11.8145 62.674V62.7194C11.8145 63.1398 11.7577 63.526 11.6554 63.8441C11.5532 64.1735 11.4055 64.4689 11.2351 64.7302C11.0534 64.9915 10.8489 65.2187 10.6217 65.4231C10.3831 65.6276 10.1332 65.798 9.87191 65.9344C10.7353 66.2638 11.4169 66.7068 11.9054 67.2635C12.4052 67.8201 12.6438 68.604 12.6438 69.5923V69.6377C12.6438 70.3421 12.5188 70.9328 12.2462 71.444ZM8.57686 63.2534C8.57686 62.7535 8.3951 62.3786 8.02022 62.1174C7.64533 61.8561 7.12277 61.7198 6.41845 61.7198H3.18082V64.8665H6.2026C6.92965 64.8665 7.49765 64.7415 7.92934 64.4916C8.34966 64.2417 8.5655 63.8441 8.5655 63.2874V63.2534H8.57686ZM9.40615 69.2061C9.40615 68.7062 9.21303 68.32 8.82678 68.0246C8.44054 67.7292 7.8271 67.5929 6.97509 67.5929H3.18082V70.876H7.07733C7.80438 70.876 8.37238 70.7397 8.78134 70.4784C9.19031 70.2171 9.39479 69.8081 9.39479 69.2515V69.2061H9.40615Z" fill="#FDB912"/>
<path d="M15.5179 73.7501V58.8456H18.8009V73.7501H15.5179Z" fill="#FDB912"/>
<path d="M22.527 73.7501V58.8456H33.7507V61.7652H25.7646V64.787H32.7965V67.7065H25.7646V70.8419H33.853V73.7614H22.527V73.7501Z" fill="#FDB912"/>
<path d="M47.2466 73.7501L40.0216 64.2758V73.7501H36.7839V58.8456H39.8057L46.7922 68.0246V58.8456H50.0298V73.7501H47.2466Z" fill="#FDB912"/>
<path d="M61.2649 73.8524H58.3681L52.3359 58.8344H55.9597L59.8563 69.3311L63.7528 58.8344H67.2857L61.2649 73.8524Z" fill="#FDB912"/>
<path d="M69.5919 73.7501V58.8456H80.8156V61.7652H72.8295V64.787H79.8614V67.7065H72.8295V70.8419H80.9179V73.7614H69.5919V73.7501Z" fill="#FDB912"/>
<path d="M94.3227 73.7501L87.0977 64.2758V73.7501H83.8601V58.8456H86.8819L93.8683 68.0246V58.8456H97.106V73.7501H94.3227Z" fill="#FDB912"/>
<path d="M112.987 70.2171C112.681 71.0577 112.249 71.7507 111.681 72.3187C111.113 72.8753 110.42 73.2957 109.613 73.5797C108.807 73.8523 107.898 74 106.91 74C104.91 74 103.331 73.4433 102.184 72.3414C101.037 71.2395 100.457 69.5809 100.457 67.3771V58.857H103.74V67.2862C103.74 68.5131 104.024 69.4219 104.592 70.0467C105.16 70.6601 105.944 70.9782 106.955 70.9782C107.966 70.9782 108.75 70.6828 109.318 70.0808C109.886 69.49 110.17 68.5926 110.17 67.3998V58.857H113.453V67.2748C113.442 68.3881 113.294 69.3764 112.987 70.2171Z" fill="#FDB912"/>
<path d="M116.793 73.7501V58.8456H128.017V61.7652H120.031V64.787H127.063V67.7065H120.031V70.8419H128.119V73.7614H116.793V73.7501Z" fill="#FDB912"/>
<defs>
<linearGradient id="paint0_linear_1002_2682" x1="59.3399" y1="-2.31099" x2="71.8042" y2="52.3615" gradientUnits="userSpaceOnUse">
<stop stop-color="#FECE08"/>
<stop offset="1" stop-color="#EBB502"/>
</linearGradient>
</defs>
</svg>
