<svg width="97" height="99" viewBox="0 0 97 99" fill="none" xmlns="http://www.w3.org/2000/svg">
<g clip-path="url(#clip0_75_934)">
<path d="M87.284 0C87.6726 0.14206 88.0613 0.273787 88.4499 0.428762C89.8285 0.982479 90.949 2.03077 91.5909 3.36713C92.2327 4.70348 92.3492 6.231 91.9175 7.64876C91.4858 9.06651 90.5372 10.2717 89.2585 11.0269C87.9799 11.7821 86.4638 12.0326 85.0091 11.729C84.522 11.6256 84.2007 11.5662 83.8743 12.0596C79.9015 18.0519 75.9183 24.0348 71.9248 30.0081C71.8938 30.0637 71.8695 30.1226 71.8523 30.1838C73.7618 33.2419 73.7825 35.7086 71.9196 38.0048C71.1488 38.9276 70.1147 39.5948 68.9545 39.9177C67.7943 40.2407 66.563 40.2041 65.4241 39.8128C62.7062 38.883 61.4911 36.7753 61.4651 32.8907C58.8094 31.5605 56.1356 30.207 53.4332 28.8949C53.2948 28.8586 53.1498 28.8546 53.0096 28.8833C52.8694 28.912 52.7377 28.9725 52.6248 29.0602C50.622 30.7985 48.4223 31.1782 45.9583 30.1734C45.8098 30.1229 45.6517 30.1066 45.496 30.1259C45.3402 30.1451 45.1909 30.1993 45.0592 30.2845C41.5977 33.6655 38.1647 37.0775 34.755 40.4534C36.1671 43.2817 35.8251 46.518 32.9284 48.5353C30.5525 50.1883 27.6947 49.8267 25.0623 47.5305L21.2458 49.4264C19.9763 50.0592 18.7196 50.7178 17.4294 51.3119C16.8127 51.5909 16.6236 51.9215 16.6521 52.624C16.8438 56.1652 14.1751 58.9805 10.7162 58.9676C9.43003 58.9584 8.18139 58.5345 7.15681 57.7594C6.13224 56.9843 5.38672 55.8995 5.03165 54.6671C4.67031 53.4499 4.71717 52.1484 5.16514 50.9602C5.6131 49.772 6.43771 48.7619 7.51378 48.0833C8.58894 47.3788 9.86451 47.0415 11.1486 47.1221C12.4326 47.2027 13.6557 47.6968 14.6337 48.5301C14.8539 48.7161 15.0612 48.915 15.3151 49.1449C18.002 47.8043 20.6862 46.4715 23.3471 45.1104C23.4532 45.0375 23.5413 44.9415 23.6046 44.8296C23.6679 44.7177 23.7048 44.5929 23.7124 44.4646C23.6139 39.0845 27.5418 36.4344 32.7108 38.4568L40.5847 30.6255C41.3153 29.8971 42.0252 29.1429 42.7844 28.4455C43.2197 28.0451 43.3207 27.7197 43.0668 27.1282C42.0304 24.7158 42.4813 22.479 44.2871 20.6245C46.0179 18.8397 48.1995 18.3799 50.5287 19.2245C52.9461 20.0976 54.2131 21.9469 54.4385 24.4911C54.446 25.014 54.4192 25.5369 54.3582 26.0563C55.3246 26.5471 56.3454 27.074 57.374 27.588C58.9882 28.3964 60.5998 29.2126 62.2347 29.9849C62.4938 30.1063 62.9705 30.1399 63.1415 29.9849C64.9552 28.3525 67.0046 27.8747 69.3598 28.585L81.7963 9.94933C80.8014 8.68888 80.2159 7.30186 80.2832 5.67205C80.3373 4.50608 80.7348 3.38183 81.426 2.43969C82.1172 1.49755 83.0714 0.779263 84.1696 0.374521C84.4961 0.253124 84.82 0.116231 85.1464 0L87.284 0ZM51.5599 24.7958C51.564 24.1929 51.3883 23.6023 51.0551 23.099C50.7219 22.5958 50.2462 22.2026 49.6884 21.9694C49.1307 21.7361 48.5159 21.6734 47.9223 21.7891C47.3287 21.9047 46.7829 22.1937 46.3543 22.6191C45.9257 23.0446 45.6335 23.5874 45.515 24.1787C45.3964 24.77 45.4567 25.3831 45.6883 25.9401C45.9199 26.4972 46.3123 26.973 46.8157 27.3074C47.319 27.6417 47.9107 27.8194 48.5156 27.8178C49.317 27.8059 50.0825 27.4841 50.6505 26.9203C51.2185 26.3565 51.5446 25.5948 51.5599 24.7958ZM32.646 43.651C32.6599 42.8541 32.3557 42.0842 31.8004 41.5107C31.245 40.9373 30.484 40.6071 29.6845 40.5929C29.2807 40.5772 28.8778 40.6423 28.4996 40.7844C28.1214 40.9265 27.7756 41.1427 27.4826 41.4202C27.1895 41.6976 26.9552 42.0308 26.7935 42.4001C26.6318 42.7693 26.5458 43.1671 26.5408 43.57C26.5358 43.9728 26.6118 44.3726 26.7643 44.7457C26.9168 45.1189 27.1427 45.4577 27.4287 45.7424C27.7147 46.0271 28.0551 46.2517 28.4296 46.4031C28.8041 46.5545 29.2053 46.6296 29.6094 46.6239C30.0051 46.6294 30.398 46.5566 30.7653 46.4098C31.1327 46.263 31.4672 46.0451 31.7495 45.7687C32.0319 45.4923 32.2565 45.1628 32.4104 44.7993C32.5642 44.4358 32.6443 44.0455 32.646 43.651ZM7.7392 53.0476C7.73925 53.6459 7.91776 54.2307 8.25203 54.7276C8.58631 55.2246 9.06126 55.6112 9.6165 55.8383C10.1717 56.0655 10.7822 56.1229 11.3703 56.0033C11.9583 55.8837 12.4974 55.5926 12.9191 55.1668C13.3407 54.741 13.6258 54.1998 13.7382 53.6121C13.8505 53.0243 13.785 52.4166 13.55 51.866C13.315 51.3155 12.9211 50.8471 12.4183 50.5203C11.9156 50.1935 11.3267 50.0231 10.7266 50.0308C10.3309 50.0304 9.93904 50.1085 9.57388 50.2604C9.20873 50.4124 8.87752 50.6352 8.59953 50.9159C8.32155 51.1967 8.10233 51.5297 7.95463 51.8956C7.80693 52.2616 7.7337 52.6532 7.7392 53.0476ZM89.2531 5.94067C89.2562 5.34258 89.0808 4.75708 88.7494 4.25854C88.4179 3.76 87.9453 3.37093 87.3915 3.14076C86.8378 2.91058 86.2279 2.84968 85.6394 2.96581C85.0508 3.08193 84.5102 3.36983 84.0861 3.79293C83.6621 4.21603 83.3737 4.75524 83.2578 5.34205C83.1418 5.92887 83.2034 6.53681 83.4348 7.08865C83.6661 7.64048 84.0568 8.1113 84.5572 8.4413C85.0576 8.7713 85.645 8.94558 86.245 8.942C86.6407 8.94371 87.0329 8.86723 87.3988 8.71698C87.7647 8.56672 88.0971 8.34567 88.3768 8.06659C88.6565 7.78752 88.8779 7.45595 89.0284 7.09106C89.1788 6.72616 89.2551 6.33517 89.2531 5.94067ZM64.3437 34.2105C64.3471 35.0082 64.6665 35.7723 65.2323 36.3363C65.7981 36.9004 66.5646 37.2188 67.3647 37.2222C67.969 37.2278 68.5613 37.054 69.0662 36.7229C69.5711 36.3919 69.9657 35.9185 70.1998 35.3631C70.4339 34.8077 70.4969 34.1954 70.3808 33.6042C70.2646 33.013 69.9746 32.4696 69.5477 32.0432C69.1207 31.6169 68.5762 31.3269 67.9833 31.2101C67.3905 31.0933 66.7762 31.155 66.2186 31.3875C65.6611 31.6199 65.1856 32.0125 64.8526 32.5152C64.5196 33.0179 64.3443 33.6081 64.3489 34.2105H64.3437Z" fill="#FDB912"/>
<path d="M90.8491 23.8893H81.6953V96.0271H90.8491V94.7641C90.8491 84.906 90.8491 75.047 90.8491 65.1873C90.8329 64.8008 90.8494 64.4138 90.8983 64.0301C91.0356 63.2165 91.5435 62.7774 92.3803 62.8136C93.1706 62.8471 93.624 63.2966 93.7225 64.074C93.7549 64.4269 93.7653 64.7814 93.7536 65.1356C93.7536 75.0264 93.7536 84.918 93.7536 94.8105V96.102C94.3961 96.102 94.9635 96.0762 95.5309 96.102C96.4326 96.1511 97.0104 96.7477 96.9922 97.5717C96.9793 98.3465 96.4196 98.9148 95.5698 98.9845C95.2796 99.0078 94.9868 98.9845 94.6967 98.9845H2.29819C1.94313 99.0088 1.58656 98.9992 1.23331 98.9561C0.437885 98.8011 -0.0284861 98.313 1.43255e-05 97.4735C-0.0106005 97.1282 0.11506 96.7924 0.350011 96.5384C0.584962 96.2844 0.910466 96.1323 1.25663 96.1149C1.91473 96.0716 2.57481 96.0664 3.23352 96.0994V94.9113C3.23352 87.1436 3.23352 79.3777 3.23352 71.6135C3.23352 69.0745 4.11444 68.1963 6.66394 68.1963C9.51398 68.1963 12.364 68.1963 15.1959 68.1963C17.2946 68.1963 18.2714 69.1804 18.274 71.2777C18.274 79.1091 18.274 86.9387 18.274 94.7666V96.0013H22.1034V62.1653C22.1034 59.6883 23.0154 58.7713 25.4716 58.7687C28.1533 58.7687 30.8401 58.8566 33.5165 58.7429C36.3225 58.6267 37.2112 60.0731 37.2009 62.3745C37.1465 73.1684 37.1776 83.9624 37.1776 94.7563V96.0477H40.9526V43.3927C40.9526 40.7401 41.8439 39.8413 44.4763 39.8413H52.7181C55.0784 39.8413 56.0449 40.8176 56.0449 43.199C56.0449 60.3701 56.0449 77.543 56.0449 94.7176V96.0245H59.8199V94.7537C59.8199 80.7699 59.8251 66.7861 59.8354 52.8022C59.8093 52.0957 59.9329 51.3916 60.1982 50.7359C60.82 49.398 63.5379 48.7109 64.722 49.6046C64.9262 49.7872 65.0853 50.0144 65.1868 50.2685C65.2884 50.5225 65.3297 50.7965 65.3075 51.0691C65.2168 51.5056 64.6339 51.9344 64.1675 52.1643C63.8099 52.3399 63.2969 52.1978 62.7917 52.1978V96.0271H71.9248V52.2702C71.4766 52.2521 71.0335 52.2547 70.5982 52.2082C69.8546 52.1255 69.3028 51.6477 69.3675 50.9606C69.409 50.4441 69.7976 49.6692 70.207 49.5349C71.4092 49.1319 72.6995 49.1061 73.8188 49.8965C74.6919 50.5138 74.8992 51.4256 74.8966 52.451C74.8811 60.4098 74.8811 68.3677 74.8966 76.3247V96.0142H78.7131V24.8398C78.7131 24.5169 78.7131 24.1966 78.7131 23.8738C78.7442 22.0296 79.7339 20.9654 81.5787 20.9422C84.6878 20.9043 87.79 20.9043 90.8854 20.9422C92.813 20.968 93.751 22.0657 93.7536 24.1682C93.7536 33.811 93.7536 43.4453 93.7536 53.0709C93.7536 54.3623 93.7536 55.6538 93.7536 56.9452C93.7536 58.2367 93.2354 58.9315 92.2845 58.9134C91.3336 58.8953 90.8491 58.2005 90.8491 56.8961C90.8491 49.5177 90.8491 42.1392 90.8491 34.7607V23.8893ZM43.9244 42.7703V96.0297H53.0653V42.7703H43.9244ZM34.1772 96.0529V61.7313H25.0726V96.0529H34.1772ZM6.2183 71.1486V96.0374H15.3099V71.1486H6.2183Z" fill="#FDB912"/>
</g>
<defs>
<clipPath id="clip0_75_934">
<rect width="97" height="99" fill="white"/>
</clipPath>
</defs>
</svg>
