<svg width="86" height="84" viewBox="0 0 86 84" fill="none" xmlns="http://www.w3.org/2000/svg">
<path d="M85.3645 32.3594C85.1202 30.4804 84.7256 28.639 84.2183 26.8352C83.6358 24.8059 82.8842 22.833 81.9447 20.9352C80.7046 18.3798 79.239 15.9559 77.3976 13.7763L74.2409 10.3002C74.1657 10.2062 74.0718 10.1123 73.9778 10.0371C70.746 7.0871 67.1571 4.71958 63.0422 3.12244C61.7269 2.61512 60.3928 2.12658 59.0211 1.80716C57.7058 1.48773 56.3906 1.26225 55.0565 1.05556C53.4218 0.792505 51.7683 0.567027 50.1148 0.491868C46.8641 0.341549 43.5947 0.28518 40.344 0.679766C39.0851 0.830085 37.7886 0.942824 36.5485 1.18709C34.895 1.50652 33.2603 1.90111 31.6256 2.31448C29.9157 2.74665 28.2434 3.27276 26.5899 3.85525C24.5042 4.58805 22.4561 5.48996 20.502 6.5234C18.2848 7.66958 16.1427 8.98487 14.0947 10.4317C9.37841 13.7763 5.37617 17.8161 2.25706 22.7014C1.29878 24.1858 0.490819 25.7454 0.190182 27.5304C-0.0165065 28.7893 0.697507 29.9731 1.88127 30.161C2.57649 30.2737 3.29051 30.2737 3.98573 30.1234C5.97745 29.6913 7.78128 28.8269 9.45357 27.6807C10.7876 26.7788 12.1029 25.8581 13.437 24.9562C14.508 24.2234 15.6918 23.6034 16.8192 22.9645C18.8485 21.8183 20.8778 20.6534 23.0198 19.7514C25.1243 18.8683 27.2475 18.0416 29.4272 17.3088C31.2686 16.7075 33.1287 16.219 35.0077 15.8432C37.2625 15.3922 39.5549 15.1291 41.866 15.0728C46.4507 14.9788 50.8851 15.5801 55.0189 17.7033C56.6912 18.5677 58.1944 19.6387 59.4721 21.0291C60.8813 22.5511 61.896 24.3174 62.1966 26.3467C62.5536 28.6014 62.3094 30.875 61.3323 33.0171C60.3176 35.2343 58.9648 37.1696 56.973 38.6164C56.0523 39.2929 55.0001 39.819 54.1546 40.6081C53.4781 41.2282 53.4593 41.6792 54.117 42.318C54.9062 43.0696 55.8456 43.5957 56.7476 44.1782C58.3635 45.2117 59.1714 46.8276 59.8479 48.5187C60.1297 49.2327 60.2237 50.0406 60.3364 50.8298C60.5619 52.3142 60.4492 53.7798 60.1297 55.2454C59.7915 56.7674 59.1527 58.1766 58.3071 59.4919C58.2695 59.5483 58.232 59.6047 58.2132 59.661C58.1004 59.8489 57.5555 60.6193 57.4804 60.7321C57.4052 60.826 56.6536 61.5776 56.5033 61.7279C55.9584 62.254 55.4135 62.7238 55.0941 62.9868C51.524 65.918 47.3339 67.177 42.7867 67.44C41.0393 67.534 39.3106 67.44 37.5632 67.2709C36.0788 67.1206 34.6319 66.8575 33.2039 66.5005C31.2686 66.0308 29.3708 65.4295 27.5858 64.5652C26.1953 63.8887 24.8236 63.1935 24.2787 61.5588C23.9593 60.5817 23.6963 59.5671 23.5459 58.5524C23.1514 55.997 22.9447 53.4416 22.8695 50.8674C22.7568 46.3015 22.7192 41.7355 22.8131 37.1696C22.8319 35.9483 23.0574 34.7833 23.5084 33.6747C24.2787 31.8333 26.5899 30.3865 28.5816 30.5744C30.2163 30.7247 31.7195 31.1944 33.0348 32.2091C35.4399 34.0881 36.6049 36.5308 36.2666 39.6311C36.1915 40.3639 36.1351 41.0967 36.06 41.8295C35.8157 43.9152 35.609 45.982 35.4023 48.0677C35.2144 50.0594 34.9889 52.0512 35.2144 54.0617C35.3272 55.1515 35.7405 56.1285 36.8303 56.5043C38.653 57.1432 40.5507 57.3687 42.4485 56.8801C44.6281 56.3352 46.1689 54.4938 46.1689 52.2578C46.1689 50.2849 45.3233 48.6878 43.6886 47.5228C43.031 47.0531 42.2982 46.7148 41.6781 46.1887C40.6071 45.3056 39.8179 44.291 40.0246 42.7878C40.1186 42.0738 40.4192 41.4537 40.7574 40.8336C41.8284 38.8795 43.4068 37.3387 45.0039 35.8355C46.0374 34.8397 47.0708 33.8814 47.766 32.6037C49.1753 30.0483 48.7055 27.6432 46.2441 26.0272C44.8536 25.1065 43.2753 24.712 41.6405 24.4301C39.1603 24.0167 36.68 24.1858 34.2186 24.5428C32.1517 24.8435 30.1224 25.332 28.1307 26.0085C26.5711 26.5346 25.0867 27.1734 23.6587 27.9438C21.6294 29.0336 19.7316 30.3301 17.9841 31.8145C16.744 32.8855 15.5791 34.0317 14.5268 35.2906C13.3243 36.7562 12.2157 38.297 11.2762 39.9505C10.2427 41.7543 9.43478 43.6521 8.8335 45.625C8.23223 47.598 7.87522 49.6461 7.7249 51.7129C7.53701 54.3999 7.70611 57.0492 8.19465 59.6798C8.4765 61.2394 8.94624 62.7614 9.41599 64.2833C10.2052 66.8951 11.3701 69.319 12.8921 71.5362C14.4517 73.8286 16.481 75.6888 18.7733 77.2483C22.024 79.4655 25.594 80.9687 29.4084 81.9646C31.7947 82.5846 34.2186 83.0168 36.68 83.2047C40.9453 83.5241 45.2106 83.3362 49.4195 82.547C51.9562 82.0773 54.4552 81.4009 56.8791 80.5177C59.5285 79.5595 62.0651 78.3569 64.489 76.9289C68.0215 74.862 71.1594 72.3254 73.9403 69.319C77.717 65.2228 80.31 60.4502 82.3393 55.3018C83.5231 52.3142 84.425 49.2515 85.0075 46.076C85.402 43.9339 85.6275 41.7919 85.7591 39.6311C85.8718 37.226 85.6651 34.7833 85.3645 32.3594Z" fill="url(#paint0_linear_20_195)"/>
<defs>
<linearGradient id="paint0_linear_20_195" x1="35.1495" y1="-3.44402" x2="55.7656" y2="86.9855" gradientUnits="userSpaceOnUse">
<stop stop-color="#FECE08"/>
<stop offset="1" stop-color="#EBB502"/>
</linearGradient>
</defs>
</svg>
