<svg width="43" height="43" viewBox="0 0 43 43" fill="none" xmlns="http://www.w3.org/2000/svg">
<path fill-rule="evenodd" clip-rule="evenodd" d="M21.3992 0.00195312C9.5808 0.00195312 0 9.56114 0 21.3529C0 33.1447 9.5808 42.7039 21.3992 42.7039C33.2177 42.7039 42.7985 33.1447 42.7985 21.3529C42.7985 9.56114 33.2177 0.00195312 21.3992 0.00195312ZM20.8035 18.0955L20.7585 17.3567C20.6238 15.4419 21.8063 13.693 23.6774 13.0144C24.3659 12.7732 25.5334 12.743 26.2968 12.9541C26.5962 13.0446 27.165 13.3461 27.5691 13.6175L28.3026 14.1151L29.1108 13.8588C29.56 13.723 30.1587 13.4969 30.4281 13.3461C30.6825 13.2104 30.907 13.1351 30.907 13.1803C30.907 13.4366 30.3533 14.3111 29.8892 14.7936C29.2606 15.472 29.4402 15.5323 30.7125 15.0801C31.4759 14.8238 31.4908 14.8238 31.3412 15.1102C31.2513 15.2609 30.7873 15.7886 30.2933 16.2712C29.4551 17.1004 29.4103 17.1909 29.4103 17.8844C29.4103 18.9549 28.9013 21.1863 28.3924 22.4076C27.4494 24.6994 25.4287 27.0666 23.4079 28.2577C20.564 29.9313 16.7769 30.3534 13.5887 29.3734C12.526 29.0417 10.6998 28.1974 10.6998 28.0466C10.6998 28.0013 11.2536 27.9411 11.9273 27.926C13.3343 27.8958 14.7413 27.5038 15.9387 26.8102L16.7471 26.3277L15.819 26.0111C14.5018 25.5588 13.3193 24.5184 13.0199 23.5384C12.9301 23.2218 12.96 23.2068 13.7983 23.2068L14.6664 23.1916L13.933 22.8449C13.0648 22.4076 12.2715 21.6689 11.8823 20.915C11.598 20.3722 11.2387 19.0002 11.3435 18.8946C11.3734 18.8494 11.6878 18.9399 12.047 19.0605C13.0798 19.4374 13.2145 19.347 12.6158 18.7136C11.4931 17.5678 11.1489 15.8641 11.6878 14.2507L11.9422 13.527L12.9301 14.507C14.9509 16.4822 17.3308 17.6583 20.055 18.005L20.8035 18.0955Z" fill="white"/>
</svg>
