<svg width="202" height="102" viewBox="0 0 202 102" fill="none" xmlns="http://www.w3.org/2000/svg">
<path fill-rule="evenodd" clip-rule="evenodd" d="M51.3093 0L52.9279 0.903431L76.1546 13.8676L99.3814 0.903431L101 0L102.619 0.903431L125.845 13.8676L149.072 0.903431L150.691 0L152.309 0.903431L175.536 13.8676L198.763 0.903431L202 6.66511L177.155 20.5327L175.536 21.4361L173.917 20.5327L150.691 7.56854L127.464 20.5327L125.845 21.4361L124.227 20.5327L101 7.56854L77.7733 20.5327L76.1546 21.4361L74.536 20.5327L51.3093 7.56854L28.0826 20.5327L26.464 21.4361L24.8453 20.5327L0 6.66511L3.23721 0.903431L26.464 13.8676L49.6907 0.903431L51.3093 0ZM51.3093 40.282L52.9279 41.1854L76.1546 54.1495L99.3814 41.1854L101 40.282L102.619 41.1854L125.845 54.1495L149.072 41.1854L150.691 40.282L152.309 41.1854L175.536 54.1495L198.763 41.1854L202 46.9471L177.155 60.8146L175.536 61.7181L173.917 60.8146L150.691 47.8505L127.464 60.8146L125.845 61.7181L124.227 60.8146L101 47.8505L77.7733 60.8146L76.1546 61.7181L74.536 60.8146L51.3093 47.8505L28.0826 60.8146L26.464 61.7181L24.8453 60.8146L0 46.9471L3.23721 41.1854L26.464 54.1495L49.6907 41.1854L51.3093 40.282ZM52.9279 81.4673L51.3093 80.5639L49.6907 81.4673L26.464 94.4315L3.23721 81.4673L0 87.229L24.8453 101.097L26.464 102L28.0826 101.097L51.3093 88.1324L74.536 101.097L76.1546 102L77.7733 101.097L101 88.1324L124.227 101.097L125.845 102L127.464 101.097L150.691 88.1324L173.917 101.097L175.536 102L177.155 101.097L202 87.229L198.763 81.4673L175.536 94.4315L152.309 81.4673L150.691 80.5639L149.072 81.4673L125.845 94.4315L102.619 81.4673L101 80.5639L99.3814 81.4673L76.1546 94.4315L52.9279 81.4673Z" fill="#FDB912" fill-opacity="0.4"/>
</svg>
