<svg width="129" height="50" viewBox="0 0 129 50" fill="none" xmlns="http://www.w3.org/2000/svg">
<path d="M1.66779 15.9715C2.75793 16.1568 3.79221 15.4257 3.97919 14.3382L3.97938 14.337L3.98127 14.3268C3.98384 14.3128 3.98847 14.2881 3.99535 14.2535C4.00911 14.1841 4.03179 14.0749 4.06473 13.9317C4.13071 13.6448 4.23725 13.2241 4.39477 12.7146C4.71207 11.6883 5.22461 10.3401 6.00444 9.01C7.56285 6.35189 10.0182 3.99996 14.0274 3.99996C18.2006 3.99996 21.427 6.4784 25.302 9.56342L25.5086 9.72793C27.5349 11.342 29.7619 13.1161 32.3299 14.3643C34.3458 15.3441 36.5718 15.9999 39.0758 15.9999C41.5688 15.9999 43.7862 15.3499 45.795 14.3772C48.3743 13.1284 50.6098 11.3476 52.643 9.72793L52.8496 9.56342C56.7246 6.4784 59.9511 3.99996 64.1242 3.99996C68.2974 3.99996 71.5238 6.4784 75.3988 9.56342L75.6054 9.72793C77.6579 11.3629 79.9164 13.1621 82.5266 14.4125C84.5161 15.3655 86.7099 15.9999 89.1726 15.9999C91.6243 15.9999 93.8095 15.3712 95.7919 14.4252C98.4135 13.1743 100.68 11.3685 102.74 9.72793L102.946 9.56342C106.821 6.4784 110.048 3.99996 114.221 3.99996C118.261 3.99996 120.916 6.38754 122.667 9.08712C123.539 10.4306 124.14 11.7894 124.524 12.8207C124.714 13.3331 124.848 13.7562 124.932 14.0449C124.975 14.1891 125.004 14.2991 125.023 14.3692C125.032 14.4042 125.038 14.4293 125.042 14.4435L125.044 14.4533L125.044 14.4555L125.045 14.4563L125.045 14.4571C125.297 15.5307 126.373 16.1979 127.45 15.9478C128.528 15.6973 129.198 14.6222 128.947 13.5464L126.996 13.9999C128.947 13.5464 128.947 13.5456 128.947 13.5448L128.947 13.5429L128.945 13.5382L128.942 13.5256L128.933 13.4874C128.925 13.4562 128.915 13.4139 128.901 13.361C128.873 13.2554 128.833 13.1075 128.779 12.9236C128.672 12.556 128.509 12.0417 128.281 11.4291C127.828 10.2104 127.106 8.56925 126.031 6.91274C123.89 3.61238 120.157 0 114.221 0C108.527 0 104.271 3.39075 100.654 6.27193L100.447 6.43644C96.5722 9.52146 93.3457 11.9999 89.1726 11.9999C84.9995 11.9999 81.773 9.52146 77.898 6.43644L77.6915 6.27193C74.0746 3.39075 69.818 0 64.1242 0C58.4304 0 54.1738 3.39075 50.557 6.27193L50.3504 6.43644C46.4754 9.52146 43.249 11.9999 39.0758 11.9999C34.9027 11.9999 31.6762 9.52146 27.8012 6.43644L27.5947 6.27193C23.9778 3.39075 19.7212 0 14.0274 0C8.06094 0 4.50464 3.64802 2.54537 6.98986C1.56637 8.65971 0.943551 10.3115 0.565205 11.5352C0.374901 12.1507 0.243536 12.6674 0.158584 13.0368C0.116054 13.2217 0.0849979 13.3703 0.0638946 13.4767C0.0533388 13.53 0.0452601 13.5727 0.0394701 13.6041L0.0324736 13.6428L0.0302158 13.6557L0.0293891 13.6605L0.0290503 13.6624C0.0289014 13.6633 0.0287608 13.6641 2.00419 13.9999L0.0287607 13.6641C-0.157032 14.753 0.576785 15.786 1.66779 15.9715Z" fill="#FDB912" fill-opacity="0.4"/>
<path d="M3.97918 31.338C3.79221 32.4255 2.75793 33.1566 1.66779 32.9713C0.576785 32.7859 -0.157032 31.7529 0.0287607 30.664L2.00419 30.9997C0.0287608 30.664 0.0289014 30.6631 0.0290503 30.6623L0.0293891 30.6603L0.0302158 30.6555L0.0324736 30.6427L0.0394701 30.604C0.0452601 30.5725 0.0533388 30.5298 0.0638946 30.4766C0.0849979 30.3702 0.116054 30.2215 0.158584 30.0366C0.243536 29.6673 0.374901 29.1505 0.565205 28.535C0.943551 27.3113 1.56637 25.6596 2.54537 23.9897C4.50464 20.6479 8.06094 16.9998 14.0274 16.9998C19.7212 16.9998 23.9778 20.3906 27.5947 23.2718L27.8012 23.4363C31.6762 26.5213 34.9027 28.9997 39.0758 28.9997C43.249 28.9997 46.4754 26.5213 50.3504 23.4363L50.557 23.2718C54.1738 20.3906 58.4304 16.9998 64.1242 16.9998C69.818 16.9998 74.0746 20.3906 77.6915 23.2718L77.898 23.4363C81.773 26.5213 84.9995 28.9997 89.1726 28.9997C93.3457 28.9997 96.5722 26.5213 100.447 23.4363L100.654 23.2718C104.271 20.3906 108.527 16.9998 114.221 16.9998C120.157 16.9998 123.89 20.6122 126.031 23.9126C127.106 25.5691 127.828 27.2102 128.281 28.4289C128.509 29.0415 128.672 29.5559 128.779 29.9234C128.833 30.1074 128.873 30.2552 128.901 30.3609C128.915 30.4137 128.925 30.4561 128.933 30.4872L128.942 30.5254L128.945 30.538L128.947 30.5427L128.947 30.5446C128.947 30.5455 128.947 30.5463 126.996 30.9997L128.947 30.5463C129.198 31.6221 128.528 32.6972 127.45 32.9476C126.373 33.1978 125.297 32.5305 125.045 31.4569L125.045 31.4562L125.044 31.4553L125.044 31.4532L125.042 31.4434C125.038 31.4291 125.032 31.4041 125.023 31.369C125.004 31.2989 124.975 31.1889 124.932 31.0448C124.848 30.7561 124.714 30.3329 124.524 29.8205C124.14 28.7893 123.539 27.4304 122.667 26.087C120.916 23.3874 118.261 20.9998 114.221 20.9998C110.048 20.9998 106.821 23.4782 102.946 26.5633L102.74 26.7278C100.68 28.3683 98.4134 30.1742 95.7919 31.4251C93.8095 32.371 91.6243 32.9997 89.1726 32.9997C86.7099 32.9997 84.5161 32.3654 82.5266 31.4123C79.9164 30.1619 77.6579 28.3628 75.6054 26.7278L75.3988 26.5633C71.5238 23.4782 68.2974 20.9998 64.1242 20.9998C59.9511 20.9998 56.7246 23.4782 52.8496 26.5633L52.643 26.7278C50.6098 28.3475 48.3743 30.1282 45.795 31.3771C43.7862 32.3497 41.5688 32.9997 39.0758 32.9997C36.5718 32.9997 34.3458 32.3439 32.3299 31.3641C29.7619 30.1159 27.5349 28.3419 25.5086 26.7278L25.302 26.5633C21.427 23.4782 18.2006 20.9998 14.0274 20.9998C10.0182 20.9998 7.56285 23.3517 6.00444 26.0098C5.22461 27.34 4.71207 28.6882 4.39477 29.7145C4.23725 30.2239 4.13071 30.6447 4.06473 30.9316C4.03179 31.0748 4.00911 31.1839 3.99535 31.2533C3.98847 31.288 3.98384 31.3127 3.98127 31.3266L3.97938 31.3369L3.97918 31.338Z" fill="#FDB912" fill-opacity="0.4"/>
<path d="M3.97938 48.3367L3.97929 48.3373C3.79261 49.4251 2.75814 50.1565 1.66779 49.9712C0.576785 49.7857 -0.157032 48.7527 0.0287607 47.6638L2.00419 47.9996C0.0287608 47.6638 0.0289014 47.663 0.0290503 47.6621L0.0293891 47.6602L0.0302158 47.6554L0.0324736 47.6425L0.0394701 47.6038C0.0452601 47.5724 0.0533388 47.5297 0.0638946 47.4764C0.0849979 47.37 0.116054 47.2214 0.158584 47.0365C0.243536 46.6671 0.374901 46.1504 0.565205 45.5349C0.943551 44.3112 1.56637 42.6594 2.54537 40.9896C4.50464 37.6477 8.06094 33.9997 14.0274 33.9997C19.7212 33.9997 23.9778 37.3904 27.5947 40.2716L27.8012 40.4361C31.6762 43.5212 34.9027 45.9996 39.0758 45.9996C43.249 45.9996 46.4754 43.5212 50.3504 40.4361L50.557 40.2716C54.1738 37.3904 58.4304 33.9997 64.1242 33.9997C69.818 33.9997 74.0746 37.3904 77.6915 40.2716L77.898 40.4361C81.773 43.5212 84.9995 45.9996 89.1726 45.9996C93.3457 45.9996 96.5722 43.5212 100.447 40.4361L100.654 40.2716C104.271 37.3904 108.527 33.9997 114.221 33.9997C120.157 33.9997 123.89 37.6121 126.031 40.9124C127.106 42.5689 127.828 44.21 128.281 45.4288C128.509 46.0414 128.672 46.5557 128.779 46.9233C128.833 47.1072 128.873 47.2551 128.901 47.3607C128.915 47.4136 128.925 47.4559 128.933 47.4871L128.942 47.5253L128.945 47.5379L128.947 47.5426L128.947 47.5445C128.947 47.5453 128.947 47.5461 126.996 47.9996L128.947 47.5461C129.198 48.6219 128.528 49.697 127.45 49.9475C126.373 50.1976 125.297 49.5304 125.045 48.4567L125.045 48.456L125.044 48.4552L125.044 48.453L125.042 48.4432C125.04 48.4368 125.038 48.4281 125.035 48.4173C125.032 48.4043 125.028 48.3881 125.023 48.3689C125.004 48.2988 124.975 48.1888 124.932 48.0446C124.848 47.7559 124.714 47.3328 124.524 46.8204C124.14 45.7891 123.539 44.4303 122.667 43.0868C120.916 40.3872 118.261 37.9997 114.221 37.9997C110.048 37.9997 106.821 40.4781 102.946 43.5631L102.74 43.7276C100.68 45.3682 98.4134 47.174 95.7919 48.4249C93.8095 49.3709 91.6243 49.9996 89.1726 49.9996C86.7099 49.9996 84.5161 49.3652 82.5266 48.4122C79.9164 47.1618 77.6579 45.3626 75.6054 43.7276L75.3988 43.5631C71.5238 40.4781 68.2974 37.9997 64.1242 37.9997C59.9511 37.9997 56.7246 40.4781 52.8496 43.5631L52.643 43.7276C50.6098 45.3473 48.3743 47.1281 45.795 48.3769C43.7862 49.3496 41.5688 49.9996 39.0758 49.9996C36.5718 49.9996 34.3458 49.3438 32.3299 48.364C29.7619 47.1158 27.5349 45.3418 25.5086 43.7277L25.302 43.5631C21.427 40.4781 18.2006 37.9997 14.0274 37.9997C10.0182 37.9997 7.56285 40.3516 6.00444 43.0097C5.22461 44.3398 4.71207 45.688 4.39477 46.7143C4.23725 47.2238 4.13071 47.6445 4.06473 47.9314C4.03179 48.0746 4.00911 48.1838 3.99535 48.2532C3.98847 48.2878 3.98384 48.3125 3.98127 48.3265L3.97938 48.3367Z" fill="#FDB912" fill-opacity="0.4"/>
</svg>
